<svg width="240" height="60" viewBox="0 0 240 60" fill="none" xmlns="http://www.w3.org/2000/svg">
<path stroke-linejoin="round" stroke-linecap="round" d="M39.7753 12.7802C43.3351 13.5279 46.8136 14.747 50.1293 16.4539C51.9175 12.9266 53.7218 9.39912 55.5099 5.88832C47.9026 1.96285 39.5885 0 31.2742 0C22.9598 0 14.6455 1.96285 7.03839 5.88832C8.8265 9.41536 10.6306 12.9266 12.4187 16.4539C15.686 14.7632 19.1156 13.5604 22.6266 12.8127C23.098 17.1364 26.7554 20.485 31.2092 20.485C35.6465 20.485 39.304 17.1202 39.7753 12.7802Z" fill="#DD2323"/>
<path stroke-linejoin="round" stroke-linecap="round" d="M50.666 17.3809C50.4871 21.0543 49.8209 24.6303 48.7155 28.0439C44.7331 26.3045 40.003 27.7836 37.7762 31.6361C35.5492 35.4884 36.6381 40.3486 40.1656 42.9169C37.7272 45.6151 34.9479 48.037 31.8105 50.0526C33.9724 53.3686 36.118 56.6845 38.2798 60.0005C52.6817 50.7516 61.7029 35.1309 62.5156 18.0146C58.5656 17.8033 54.6159 17.592 50.666 17.3809Z" fill="#549A3C"/>
<path stroke-linejoin="round" stroke-linecap="round" d="M22.3502 42.9169C25.8775 40.3486 26.9664 35.4884 24.7396 31.6361C22.5128 27.7836 17.7827 26.3045 13.8003 28.0439C12.6949 24.6303 12.0285 21.0543 11.8498 17.3809C7.89988 17.592 3.94994 17.8033 0 17.9984C0.81286 35.0982 9.83414 50.7191 24.2358 59.9842C26.3976 56.6683 28.5434 53.3523 30.705 50.0364C27.5842 48.0369 24.7883 45.6151 22.3502 42.9169Z" fill="#DD2323"/>
<path stroke-linejoin="round" stroke-linecap="round" d="M232.068 50.8812H220.852L215.244 30.9694C214.985 30.0103 214.773 28.3034 214.642 25.8493C214.611 25.6215 214.595 25.28 214.595 24.8576L214.546 25.914L214.497 27.6534C214.399 29.6853 214.318 30.7907 214.269 30.9694L210.694 50.8812H200.599L207.539 17.9656H219.113L224.169 36.0245C224.396 36.7397 224.624 37.9102 224.802 39.568L225.03 41.2911L225.112 42.2014V39.568C225.128 38.3489 225.144 37.5038 225.159 37.0486C225.175 36.5935 225.208 36.252 225.241 36.0245L228.638 17.9656H238.961L232.068 50.8812ZM186.993 32.2696C186.912 31.6031 186.863 30.5304 186.863 29.0186C186.896 28.6287 186.912 28.3361 186.912 28.1083C186.912 27.881 186.928 27.6372 186.945 27.3771C186.685 28.3848 186.328 29.49 185.906 30.6928L185.547 31.5546L185.255 32.2209L182.361 38.869H187.612L186.993 32.2696ZM188.766 50.8812L188.375 46.4439H179.143L177.193 50.8812H164.432L183.386 17.9656H193.658L199.997 50.8812H188.766ZM157.15 29.0186C157.15 28.1248 156.793 27.3771 156.061 26.7918C155.33 26.2068 154.338 25.914 153.07 25.914C152.68 25.914 152.388 25.9305 152.193 25.963C150.502 26.1578 149.007 27.0194 147.69 28.531C146.39 30.059 145.496 32.1884 145.024 34.9518C144.878 35.8618 144.797 36.6097 144.797 37.1623C144.797 39.178 145.301 40.7546 146.325 41.8762C147.349 42.9978 148.682 43.5504 150.372 43.5504C150.616 43.5504 151.006 43.5181 151.494 43.4692C153.217 43.2091 154.68 42.2501 155.866 40.6246C155.931 40.5595 156.061 40.3483 156.289 40.0233H151.803L153.444 32.3835H167.7L163.766 50.8812H155.833L156.565 47.4841C155.606 48.8008 154.338 49.8085 152.778 50.54C151.217 51.2552 149.429 51.6289 147.414 51.6289C146.406 51.6289 145.382 51.5315 144.342 51.3364C142.391 50.9789 140.619 50.1823 139.059 48.9307C137.498 47.6792 136.279 46.0699 135.402 44.1194C134.524 42.1689 134.085 39.9906 134.085 37.585C134.085 34.6755 134.8 31.5871 136.23 28.3524C136.897 26.873 137.677 25.5403 138.588 24.3375C139.498 23.1344 140.489 22.0942 141.578 21.2329C142.667 20.3713 143.854 19.6399 145.138 19.0386C146.422 18.4533 147.771 18.0306 149.185 17.803C150.551 17.5757 152.03 17.4453 153.623 17.4453C155.752 17.4453 157.67 17.7218 159.361 18.2582C161.051 18.811 162.482 19.5587 163.652 20.5339C164.823 21.5092 165.717 22.6308 166.317 23.931C166.935 25.2153 167.229 26.6132 167.229 28.1248C167.229 28.515 167.213 28.8075 167.164 29.0351H157.15V29.0186ZM131.956 38.2515C131.468 40.5272 130.899 42.4127 130.265 43.9243C129.631 45.4359 128.818 46.6875 127.859 47.6629C126.9 48.6544 125.714 49.4346 124.3 50.0199C122.885 50.6049 121.114 51.0763 118.968 51.4178C117.847 51.5964 116.725 51.6778 115.587 51.6778C114.092 51.6778 112.694 51.5315 111.41 51.2065C109.085 50.7188 107.151 50.0199 105.623 49.0771C104.095 48.1506 102.957 46.9965 102.226 45.5986C101.494 44.2006 101.137 42.5589 101.137 40.6571C101.137 39.2754 101.283 37.8938 101.608 36.4958L105.493 17.9332H116.579L112.499 37.1136C112.304 38.154 112.19 38.9667 112.141 39.5192C112.141 40.5919 112.482 41.4697 113.165 42.1525C113.848 42.8352 114.742 43.1767 115.847 43.1767C116.335 43.1767 116.692 43.144 116.936 43.0952C117.749 42.9328 118.399 42.6728 118.887 42.3151C119.374 41.9576 119.781 41.4048 120.106 40.6571C120.431 39.9094 120.756 38.869 121.049 37.5363L125.177 17.9332H136.198L131.956 38.2515ZM101.868 26.8406H94.017L88.9619 50.8812H77.86L82.9151 26.7918H74.6415L76.4948 17.9656H103.689L101.868 26.8406Z" fill="#549A3C"/>
<path stroke-linejoin="round" stroke-linecap="round" d="M238.391 12.0975V8.06639L236.392 11.4148H236.034L234.035 8.08263V12.0813H233.271V6.5548H233.921L236.229 10.4396L238.505 6.5548H239.155V12.0813H238.391V12.0975ZM230.215 7.57854C229.954 7.36743 229.564 7.25353 229.077 7.25353H227.728V9.7406H229.077C229.581 9.7406 229.954 9.62693 230.215 9.41537C230.474 9.20403 230.605 8.89526 230.605 8.48906C230.621 8.09887 230.491 7.7901 230.215 7.57854ZM230.182 10.2445L231.499 12.0975H230.637L229.452 10.4071C229.305 10.4233 229.191 10.4233 229.109 10.4233H227.744V12.0975H226.948V6.57082H229.109C229.825 6.57082 230.394 6.7499 230.8 7.09092C231.207 7.43239 231.417 7.904 231.417 8.5053C231.417 8.92774 231.321 9.3017 231.109 9.59445C230.882 9.88698 230.572 10.0983 230.182 10.2445ZM224.087 8.24525C223.892 7.92002 223.649 7.65996 223.322 7.48134C222.998 7.30248 222.641 7.20482 222.235 7.20482C221.827 7.20482 221.469 7.30248 221.129 7.48134C220.804 7.65996 220.543 7.92002 220.349 8.24525C220.153 8.57026 220.072 8.92774 220.072 9.3344C220.072 9.7406 220.17 10.0983 220.349 10.4233C220.527 10.7483 220.788 11.0086 221.129 11.1872C221.453 11.3661 221.827 11.4635 222.235 11.4635C222.641 11.4635 222.998 11.3661 223.322 11.1872C223.649 11.0086 223.908 10.7483 224.087 10.4233C224.265 10.0983 224.363 9.7406 224.363 9.3344C224.363 8.92774 224.265 8.57026 224.087 8.24525ZM224.769 10.781C224.51 11.2035 224.169 11.5447 223.714 11.7885C223.273 12.0326 222.77 12.1625 222.218 12.1625C221.665 12.1625 221.161 12.0326 220.706 11.7885C220.251 11.5447 219.909 11.2035 219.649 10.781C219.39 10.3421 219.26 9.87074 219.26 9.3344C219.26 8.79783 219.39 8.32644 219.649 7.88754C219.909 7.44863 220.251 7.12362 220.706 6.87981C221.145 6.636 221.649 6.50586 222.218 6.50586C222.77 6.50586 223.273 6.636 223.714 6.87981C224.169 7.12362 224.51 7.4651 224.769 7.88754C225.03 8.31021 225.144 8.79783 225.144 9.3344C225.144 9.87074 225.03 10.3581 224.769 10.781ZM214.919 7.25353V9.17156H217.682V9.8545H214.919V12.0813H214.124V6.5548H218.023V7.23752H214.919V7.25353ZM210.775 7.25353V12.0975H209.994V7.25353H208.092V6.57082H212.66V7.25353H210.775ZM204.582 7.36743L203.395 10.0818H205.784L204.582 7.36743ZM206.662 12.0975L206.06 10.7159H203.119L202.517 12.0975H201.705L204.207 6.57082H204.988L207.49 12.0975H206.662ZM197.251 12.0975V6.57082H198.047V11.4148H201.038V12.0975H197.251ZM194.243 7.57854C193.984 7.36743 193.593 7.25353 193.105 7.25353H191.756V9.7406H193.105C193.609 9.7406 193.984 9.62693 194.243 9.41537C194.504 9.20403 194.633 8.89526 194.633 8.48906C194.633 8.09887 194.504 7.7901 194.243 7.57854ZM194.813 9.90322C194.406 10.2445 193.837 10.4233 193.121 10.4233H191.756V12.0975H190.96V6.57082H193.121C193.837 6.57082 194.406 6.7499 194.813 7.09092C195.218 7.43239 195.43 7.904 195.43 8.5053C195.43 9.09036 195.218 9.56175 194.813 9.90322ZM185.271 7.28624C185.01 7.20482 184.751 7.17234 184.49 7.17234C184.035 7.17234 183.71 7.25354 183.483 7.41615C183.255 7.57854 183.141 7.79011 183.141 8.05016C183.141 8.24525 183.206 8.39163 183.337 8.5053C183.467 8.6192 183.612 8.71641 183.808 8.78159C183.987 8.84655 184.247 8.91173 184.571 8.99293C184.994 9.09036 185.32 9.18802 185.579 9.28546C185.84 9.38312 186.051 9.54551 186.23 9.7406C186.408 9.95194 186.506 10.2282 186.506 10.5697C186.506 10.8622 186.424 11.1223 186.263 11.3661C186.1 11.6099 185.873 11.7885 185.547 11.9349C185.222 12.0813 184.832 12.1462 184.361 12.1462C183.939 12.1462 183.547 12.0813 183.157 11.9512C182.767 11.8212 182.476 11.6586 182.247 11.4473L182.541 10.8295C182.751 11.0246 183.028 11.171 183.353 11.2849C183.677 11.3986 184.018 11.4635 184.361 11.4635C184.816 11.4635 185.157 11.3823 185.385 11.236C185.612 11.0733 185.726 10.8785 185.726 10.6184C185.726 10.4233 185.661 10.2769 185.547 10.163C185.418 10.0496 185.271 9.95194 185.092 9.88698C184.914 9.8218 184.653 9.75684 184.328 9.67565C183.906 9.57822 183.58 9.48032 183.32 9.38312C183.059 9.28546 182.849 9.12284 182.669 8.92774C182.492 8.71641 182.394 8.44012 182.394 8.08263C182.394 7.7901 182.476 7.51381 182.621 7.28624C182.784 7.04243 183.012 6.86357 183.32 6.71719C183.629 6.57081 184.035 6.50586 184.49 6.50586C184.816 6.50586 185.141 6.5548 185.449 6.636C185.759 6.71719 186.034 6.84734 186.263 6.99371L186.002 7.62749C185.791 7.48134 185.53 7.36743 185.271 7.28624ZM179.776 7.28624C179.517 7.20482 179.256 7.17234 178.997 7.17234C178.542 7.17234 178.217 7.25354 177.989 7.41615C177.762 7.57854 177.648 7.79011 177.648 8.05016C177.648 8.24525 177.713 8.39163 177.842 8.5053C177.972 8.6192 178.119 8.71641 178.313 8.78159C178.493 8.84655 178.752 8.91173 179.078 8.99293C179.501 9.09036 179.825 9.18802 180.086 9.28546C180.345 9.38312 180.557 9.54551 180.735 9.7406C180.915 9.95194 181.012 10.2282 181.012 10.5697C181.012 10.8622 180.931 11.1223 180.768 11.3661C180.606 11.6099 180.378 11.7885 180.053 11.9349C179.727 12.0813 179.338 12.1462 178.866 12.1462C178.444 12.1462 178.054 12.0813 177.664 11.9512C177.274 11.8212 176.981 11.6586 176.754 11.4473L177.046 10.8295C177.258 11.0246 177.534 11.171 177.858 11.2849C178.184 11.3986 178.525 11.4635 178.866 11.4635C179.321 11.4635 179.664 11.3823 179.89 11.236C180.119 11.0733 180.231 10.8785 180.231 10.6184C180.231 10.4233 180.168 10.2769 180.053 10.163C179.923 10.0496 179.776 9.95194 179.598 9.88698C179.419 9.8218 179.16 9.75684 178.833 9.67565C178.411 9.57822 178.086 9.48032 177.825 9.38312C177.566 9.28546 177.354 9.12284 177.176 8.92774C176.997 8.71641 176.899 8.44012 176.899 8.08263C176.899 7.7901 176.981 7.51381 177.127 7.28624C177.289 7.04243 177.517 6.86357 177.825 6.71719C178.135 6.57081 178.542 6.50586 178.997 6.50586C179.321 6.50586 179.647 6.5548 179.956 6.636C180.264 6.71719 180.541 6.84734 180.768 6.99371L180.509 7.62749C180.297 7.48134 180.053 7.36743 179.776 7.28624ZM175.403 11.4148V12.0975H171.39V6.57082H175.291V7.25353H172.186V8.94421H174.948V9.61046H172.186V11.3986H175.403V11.4148ZM168.496 12.0975L165.18 7.96873V12.0975H164.383V6.57082H165.034L168.349 10.6996V6.57082H169.147V12.0975H168.496ZM161.344 12.0975V6.57082H162.141V12.0975H161.344ZM158.369 7.28624C158.109 7.20482 157.849 7.17234 157.589 7.17234C157.15 7.17234 156.809 7.25354 156.581 7.41615C156.354 7.57854 156.24 7.79011 156.24 8.05016C156.24 8.24525 156.305 8.39163 156.435 8.5053C156.565 8.6192 156.711 8.71641 156.906 8.78159C157.085 8.84655 157.345 8.91173 157.67 8.99293C158.093 9.09036 158.418 9.18802 158.678 9.28546C158.938 9.38312 159.15 9.54551 159.328 9.7406C159.507 9.95194 159.605 10.2282 159.605 10.5697C159.605 10.8622 159.523 11.1223 159.361 11.3661C159.198 11.6099 158.971 11.7885 158.646 11.9349C158.32 12.0813 157.931 12.1462 157.459 12.1462C157.036 12.1462 156.646 12.0813 156.256 11.9512C155.866 11.8212 155.574 11.6586 155.346 11.4473L155.639 10.8295C155.85 11.0246 156.126 11.171 156.451 11.2849C156.776 11.3986 157.118 11.4635 157.459 11.4635C157.914 11.4635 158.256 11.3823 158.483 11.236C158.711 11.0733 158.824 10.8785 158.824 10.6184C158.824 10.4233 158.759 10.2769 158.646 10.163C158.516 10.0496 158.369 9.95194 158.191 9.88698C158.012 9.8218 157.752 9.75684 157.426 9.67565C157.004 9.57822 156.679 9.48032 156.419 9.38312C156.159 9.28546 155.947 9.12284 155.769 8.92774C155.59 8.71641 155.492 8.44012 155.492 8.08263C155.492 7.7901 155.574 7.51381 155.72 7.28624C155.882 7.04243 156.11 6.86357 156.419 6.71719C156.728 6.57081 157.134 6.50586 157.589 6.50586C157.914 6.50586 158.239 6.5548 158.548 6.636C158.857 6.71719 159.133 6.84734 159.361 6.99371L159.101 7.62749C158.89 7.48134 158.646 7.36743 158.369 7.28624ZM153.038 11.5287C152.631 11.9512 152.046 12.1625 151.315 12.1625C150.583 12.1625 149.998 11.9512 149.592 11.5287C149.185 11.106 148.974 10.5045 148.974 9.70813V6.57082H149.771V9.67565C149.771 10.8622 150.291 11.4473 151.331 11.4473C151.835 11.4473 152.225 11.3011 152.485 11.0086C152.762 10.7159 152.891 10.2769 152.891 9.67565V6.57082H153.655V9.70813C153.655 10.5045 153.444 11.106 153.038 11.5287ZM145.057 9.61046H143.236V11.4473H145.057C145.512 11.4473 145.837 11.3661 146.065 11.2199C146.292 11.0733 146.406 10.846 146.406 10.5208C146.406 9.91923 145.967 9.61046 145.057 9.61046ZM145.804 7.43239C145.593 7.28624 145.268 7.20482 144.862 7.20482H143.236V8.97669H144.862C145.268 8.97669 145.577 8.89527 145.804 8.74912C146.016 8.60274 146.129 8.37516 146.129 8.08263C146.129 7.80634 146.016 7.57854 145.804 7.43239ZM146.926 9.70813C147.105 9.9357 147.202 10.2445 147.202 10.6022C147.202 11.0733 147.024 11.4473 146.666 11.7073C146.308 11.9676 145.788 12.0975 145.089 12.0975H142.456V6.57082H144.927C145.561 6.57082 146.048 6.70095 146.39 6.94477C146.731 7.20482 146.91 7.54629 146.91 8.00144C146.91 8.29374 146.845 8.53778 146.715 8.74912C146.585 8.96022 146.406 9.12284 146.178 9.23674C146.504 9.31793 146.747 9.48055 146.926 9.70813ZM134.459 12.0975V6.57082H135.255V11.4148H138.246V12.0975H134.459ZM130.151 7.36743L128.965 10.0818H131.354L130.151 7.36743ZM132.232 12.0975L131.63 10.7159H128.688L128.087 12.0975H127.274L129.777 6.57082H130.558L133.061 12.0975H132.232ZM125.064 12.0975V6.57082H125.86V12.0975H125.064ZM121.276 7.20482C120.87 7.20482 120.496 7.30248 120.171 7.48134C119.846 7.65996 119.586 7.92002 119.391 8.24525C119.212 8.57026 119.114 8.92774 119.114 9.3344C119.114 9.7406 119.212 10.0983 119.391 10.4233C119.569 10.7483 119.829 11.0086 120.171 11.1872C120.496 11.3661 120.87 11.4635 121.276 11.4635C121.894 11.4635 122.414 11.236 122.837 10.797L123.357 11.3011C123.097 11.5937 122.804 11.805 122.43 11.9512C122.073 12.0975 121.666 12.179 121.244 12.179C120.691 12.179 120.187 12.0488 119.748 11.805C119.309 11.5612 118.952 11.2199 118.708 10.797C118.448 10.3746 118.334 9.88698 118.334 9.35064C118.334 8.81407 118.464 8.32644 118.708 7.904C118.968 7.48133 119.309 7.13986 119.765 6.89605C120.203 6.65224 120.707 6.52233 121.26 6.52233C121.699 6.52233 122.089 6.58728 122.446 6.73343C122.804 6.87981 123.113 7.09114 123.357 7.38367L122.837 7.88754C122.414 7.43239 121.894 7.20482 121.276 7.20482ZM115.896 8.24525C115.717 7.92002 115.457 7.65996 115.132 7.48134C114.807 7.30248 114.449 7.20482 114.043 7.20482C113.636 7.20482 113.263 7.30248 112.938 7.48134C112.613 7.65996 112.352 7.92002 112.157 8.24525C111.979 8.57026 111.881 8.92774 111.881 9.3344C111.881 9.7406 111.979 10.0983 112.157 10.4233C112.336 10.7483 112.596 11.0086 112.938 11.1872C113.263 11.3661 113.636 11.4635 114.043 11.4635C114.449 11.4635 114.807 11.3661 115.132 11.1872C115.457 11.0086 115.717 10.7483 115.896 10.4233C116.075 10.0983 116.172 9.7406 116.172 9.3344C116.172 8.92774 116.075 8.57026 115.896 8.24525ZM116.578 10.781C116.318 11.2035 115.977 11.5447 115.522 11.7885C115.067 12.0326 114.579 12.1625 114.026 12.1625C113.474 12.1625 112.97 12.0326 112.515 11.7885C112.076 11.5447 111.718 11.2035 111.458 10.781C111.198 10.3421 111.068 9.87074 111.068 9.3344C111.068 8.79783 111.198 8.32644 111.458 7.88754C111.718 7.44863 112.06 7.12362 112.515 6.87981C112.97 6.636 113.458 6.50586 114.026 6.50586C114.579 6.50586 115.083 6.636 115.522 6.87981C115.961 7.12362 116.318 7.4651 116.578 7.88754C116.839 8.31021 116.952 8.79783 116.952 9.3344C116.969 9.87074 116.839 10.3581 116.578 10.781ZM108.565 7.28624C108.305 7.20482 108.045 7.17234 107.785 7.17234C107.346 7.17234 107.005 7.25354 106.777 7.41615C106.549 7.57854 106.436 7.79011 106.436 8.05016C106.436 8.24525 106.501 8.39163 106.631 8.5053C106.761 8.6192 106.907 8.71641 107.102 8.78159C107.281 8.84655 107.541 8.91173 107.866 8.99293C108.289 9.09036 108.614 9.18802 108.874 9.28546C109.134 9.38312 109.345 9.54551 109.524 9.7406C109.703 9.95194 109.8 10.2282 109.8 10.5697C109.8 10.8622 109.719 11.1223 109.557 11.3661C109.394 11.6099 109.166 11.7885 108.841 11.9349C108.516 12.0813 108.126 12.1462 107.655 12.1462C107.232 12.1462 106.842 12.0813 106.452 11.9512C106.062 11.8212 105.769 11.6586 105.542 11.4473L105.834 10.8295C106.046 11.0246 106.322 11.171 106.647 11.2849C106.972 11.3986 107.313 11.4635 107.655 11.4635C108.11 11.4635 108.451 11.3823 108.679 11.236C108.906 11.0733 109.02 10.8785 109.02 10.6184C109.02 10.4233 108.955 10.2769 108.841 10.163C108.711 10.0496 108.565 9.95194 108.386 9.88698C108.207 9.8218 107.947 9.75684 107.622 9.67565C107.2 9.57822 106.875 9.48032 106.614 9.38312C106.354 9.28546 106.143 9.12284 105.964 8.92774C105.785 8.71641 105.688 8.44012 105.688 8.08263C105.688 7.7901 105.769 7.51381 105.915 7.28624C106.078 7.04243 106.306 6.86357 106.614 6.71719C106.923 6.57081 107.313 6.50586 107.785 6.50586C108.11 6.50586 108.435 6.5548 108.744 6.636C109.053 6.71719 109.329 6.84734 109.557 6.99371L109.296 7.62749C109.085 7.48134 108.825 7.36743 108.565 7.28624Z" fill="#252422"/>
</svg>
