<svg width="63" height="60" viewBox="0 0 63 60" fill="none" xmlns="http://www.w3.org/2000/svg">
<path d="M39.7755 12.7802C43.3353 13.5279 46.8138 14.747 50.1295 16.4539C51.9176 12.9266 53.722 9.39912 55.5101 5.88832C47.9027 1.96285 39.5887 0 31.2743 0C22.96 0 14.6457 1.96285 7.03857 5.88832C8.82668 9.41536 10.6308 12.9266 12.4189 16.4539C15.6861 14.7632 19.1157 13.5604 22.6268 12.8127C23.0982 17.1364 26.7556 20.485 31.2094 20.485C35.6467 20.485 39.3041 17.1202 39.7755 12.7802Z" fill="#DD2323"/>
<path d="M50.666 17.3805C50.4871 21.0539 49.8209 24.6299 48.7155 28.0435C44.7331 26.3041 40.003 27.7832 37.7762 31.6357C35.5492 35.488 36.6381 40.3483 40.1656 42.9165C37.7272 45.6147 34.9479 48.0366 31.8105 50.0523C33.9724 53.3682 36.118 56.6841 38.2798 60.0001C52.6817 50.7512 61.7029 35.1305 62.5156 18.0143C58.5656 17.8029 54.6159 17.5916 50.666 17.3805Z" fill="#549A3C"/>
<path d="M22.3502 42.9165C25.8775 40.3483 26.9664 35.488 24.7396 31.6357C22.5128 27.7832 17.7827 26.3041 13.8003 28.0435C12.6949 24.6299 12.0285 21.0539 11.8498 17.3805C7.89988 17.5916 3.94994 17.8029 0 17.998C0.81286 35.0978 9.83414 50.7187 24.2358 59.9838C26.3976 56.6679 28.5434 53.352 30.705 50.036C27.5842 48.0366 24.7883 45.6147 22.3502 42.9165Z" fill="#DD2323"/>
</svg>
