<svg width="24" height="24" viewBox="0 0 24 24" fill="none" xmlns="http://www.w3.org/2000/svg">
<path d="M5.00004 19C5.55232 19 6.00004 18.5523 6.00004 18C6.00004 17.4477 5.55232 17 5.00004 17V19ZM1.00004 16H3.8147e-05H1.00004ZM6.19004 7C6.74232 7 7.19004 6.55228 7.19004 6C7.19004 5.44772 6.74232 5 6.19004 5V7ZM15.0001 5C14.4478 5 14.0001 5.44772 14.0001 6C14.0001 6.55228 14.4478 7 15.0001 7V5ZM13.8101 17C13.2578 17 12.8101 17.4477 12.8101 18C12.8101 18.5523 13.2578 19 13.8101 19V17ZM5.00004 17H3.00004V19H5.00004V17ZM3.00004 17C2.44775 17 2.00004 16.5523 2.00004 16H3.8147e-05C3.8147e-05 17.6569 1.34318 19 3.00004 19V17ZM2.00004 16V8H3.8147e-05V16H2.00004ZM2.00004 8C2.00004 7.44772 2.44775 7 3.00004 7V5C1.34318 5 3.8147e-05 6.34315 3.8147e-05 8H2.00004ZM3.00004 7H6.19004V5H3.00004V7ZM15.0001 7H17.0001V5H15.0001V7ZM17.0001 7C17.5524 7 18.0001 7.44772 18.0001 8H20.0001C20.0001 6.34315 18.657 5 17.0001 5V7ZM18.0001 8V16H20.0001V8H18.0001ZM18.0001 16C18.0001 16.5523 17.5524 17 17.0001 17V19C18.657 19 20.0001 17.6569 20.0001 16H18.0001ZM17.0001 17H13.8101V19H17.0001V17Z" fill="black"/>
<path d="M23 13V11" stroke="black" stroke-width="2" stroke-linecap="round" stroke-linejoin="round"/>
<path d="M11 6L7 12H13L9 18" stroke="black" stroke-width="2" stroke-linecap="round" stroke-linejoin="round"/>
</svg>
