<svg width="24" height="24" viewBox="0 0 24 24" fill="none" xmlns="http://www.w3.org/2000/svg">
<path d="M9.28735 20.9579C9.81634 20.7992 10.1165 20.2417 9.95783 19.7127C9.79913 19.1837 9.24164 18.8835 8.71265 19.0422L9.28735 20.9579ZM2.24254 16.0299C1.70674 15.896 1.16381 16.2217 1.02986 16.7575C0.895909 17.2933 1.22167 17.8363 1.75746 17.9702L2.24254 16.0299ZM15 23.0001C15 23.5523 15.4477 24.0001 16 24.0001C16.5523 24.0001 17 23.5523 17 23.0001H15ZM16 19.1301L15.0031 19.0516C15.001 19.0777 15 19.1039 15 19.1301H16ZM15.06 16.5201L14.9492 15.5262C14.57 15.5685 14.2479 15.8228 14.1189 16.1819C13.9899 16.541 14.0764 16.9422 14.342 17.2161L15.06 16.5201ZM21.5 9.52006H22.5V9.51988L21.5 9.52006ZM20 5.77006L19.0631 5.42042C18.9293 5.77896 19.0119 6.18241 19.2757 6.45958L20 5.77006ZM19.91 2.00006L20.8291 1.60611C20.712 1.33286 20.4794 1.12588 20.1944 1.04134L19.91 2.00006ZM16 3.48006L15.7384 4.44524C16.0178 4.52097 16.3163 4.47189 16.5568 4.3107L16 3.48006ZM9 3.48006L8.44319 4.3107C8.68366 4.47189 8.98217 4.52097 9.26158 4.44524L9 3.48006ZM5.09 2.00006L4.80563 1.04134C4.52061 1.12588 4.28799 1.33286 4.17087 1.60611L5.09 2.00006ZM5 5.77006L5.72425 6.4596C5.98813 6.18243 6.07069 5.77896 5.93688 5.42042L5 5.77006ZM3.5 9.55006H4.50001L4.49999 9.54474L3.5 9.55006ZM9.94 16.5501L10.6586 17.2455C10.9223 16.973 11.0092 16.5749 10.8831 16.2174C10.7569 15.8599 10.4395 15.6044 10.0633 15.5577L9.94 16.5501ZM9 19.1301H10C10 19.1067 9.99918 19.0833 9.99754 19.0599L9 19.1301ZM8 23.0001C8 23.5523 8.44771 24.0001 9 24.0001C9.55228 24.0001 10 23.5523 10 23.0001H8ZM8.71265 19.0422C7.57636 19.3831 6.82286 19.3817 6.30601 19.2607C5.80203 19.1428 5.42857 18.8894 5.08211 18.543C4.90325 18.3641 4.73545 18.1643 4.5569 17.9406C4.39069 17.7324 4.18875 17.4689 3.99562 17.2422C3.60492 16.7836 3.05841 16.2339 2.24254 16.0299L1.75746 17.9702C1.94159 18.0162 2.14508 18.1541 2.47313 18.5392C2.63937 18.7343 2.789 18.9318 2.99388 19.1884C3.18643 19.4296 3.40925 19.6985 3.66789 19.9572C4.19643 20.4857 4.88547 20.9823 5.85024 21.2081C6.80214 21.4309 7.92364 21.367 9.28735 20.9579L8.71265 19.0422ZM17 23.0001V19.1301H15V23.0001H17ZM16.9969 19.2085C17.0953 17.9577 16.6513 16.7249 15.778 15.824L14.342 17.2161C14.8157 17.7047 15.0564 18.3733 15.0031 19.0516L16.9969 19.2085ZM15.1708 17.5139C16.797 17.3326 18.652 16.9201 20.1011 15.7017C21.5987 14.4424 22.5 12.4663 22.5 9.52006H20.5C20.5 12.0338 19.7513 13.3827 18.8139 14.1709C17.828 15 16.463 15.3575 14.9492 15.5262L15.1708 17.5139ZM22.5 9.51988C22.4997 7.86705 21.8639 6.27762 20.7243 5.08054L19.2757 6.45958C20.0615 7.2849 20.4998 8.38072 20.5 9.52024L22.5 9.51988ZM20.9369 6.1197C21.4827 4.65728 21.4441 3.04082 20.8291 1.60611L18.9909 2.39401C19.4032 3.356 19.4291 4.43985 19.0631 5.42042L20.9369 6.1197ZM19.91 2.00006C20.1944 1.04134 20.1934 1.04106 20.1924 1.04077C20.1921 1.04067 20.1911 1.04039 20.1905 1.04019C20.1891 1.03981 20.1878 1.03942 20.1864 1.03903C20.1837 1.03824 20.1809 1.03745 20.178 1.03664C20.1723 1.03504 20.1662 1.03339 20.1598 1.03172C20.1471 1.02838 20.1331 1.02493 20.1178 1.02147C20.0873 1.01453 20.0519 1.00752 20.0115 1.00107C19.9305 0.988171 19.8304 0.977644 19.7105 0.974344C19.4702 0.967731 19.1553 0.990269 18.762 1.07758C17.9773 1.2518 16.8856 1.6825 15.4432 2.64942L16.5568 4.3107C17.8444 3.44762 18.7077 3.13832 19.1955 3.03004C19.4385 2.9761 19.5892 2.97176 19.6555 2.97359C19.6889 2.97451 19.7022 2.97703 19.6965 2.97612C19.6937 2.97567 19.6863 2.97439 19.6744 2.97169C19.6684 2.97034 19.6614 2.96863 19.6532 2.9665C19.6492 2.96544 19.6448 2.96427 19.6402 2.96298C19.6379 2.96234 19.6356 2.96167 19.6331 2.96097C19.6319 2.96062 19.6307 2.96026 19.6294 2.95989C19.6288 2.95971 19.6279 2.95943 19.6275 2.95934C19.6266 2.95906 19.6256 2.95878 19.91 2.00006ZM16.2616 2.51488C13.7983 1.84728 11.2017 1.84728 8.73842 2.51488L9.26158 4.44524C11.3823 3.87049 13.6177 3.87049 15.7384 4.44524L16.2616 2.51488ZM9.5568 2.64942C8.11435 1.6825 7.02274 1.2518 6.23798 1.07758C5.8447 0.990269 5.52982 0.967731 5.28952 0.974344C5.16963 0.977644 5.06945 0.988171 4.98854 1.00107C4.94814 1.00752 4.91271 1.01453 4.8822 1.02147C4.86695 1.02493 4.85294 1.02838 4.84018 1.03172C4.8338 1.03339 4.82773 1.03504 4.82197 1.03664C4.81909 1.03745 4.81629 1.03824 4.81357 1.03903C4.81221 1.03942 4.81087 1.03981 4.80954 1.04019C4.80888 1.04039 4.8079 1.04067 4.80757 1.04077C4.8066 1.04106 4.80563 1.04134 5.09 2.00006C5.37436 2.95878 5.37341 2.95906 5.37245 2.95934C5.37214 2.95943 5.37119 2.95971 5.37056 2.95989C5.36931 2.96026 5.36808 2.96062 5.36686 2.96097C5.36443 2.96167 5.36206 2.96234 5.35976 2.96298C5.35516 2.96427 5.35082 2.96544 5.34676 2.9665C5.33862 2.96863 5.33158 2.97034 5.32564 2.97169C5.31374 2.97439 5.30633 2.97567 5.30353 2.97612C5.29781 2.97703 5.31115 2.97451 5.34454 2.97359C5.4108 2.97176 5.56155 2.9761 5.80452 3.03004C6.29226 3.13832 7.15565 3.44762 8.44319 4.3107L9.5568 2.64942ZM4.17087 1.60611C3.55594 3.04082 3.51735 4.65728 4.06312 6.1197L5.93688 5.42042C5.57094 4.43985 5.59681 3.356 6.00913 2.39401L4.17087 1.60611ZM4.27575 5.08052C3.12759 6.28648 2.49116 7.89028 2.50001 9.55538L4.49999 9.54474C4.49388 8.39676 4.93266 7.29104 5.72425 6.4596L4.27575 5.08052ZM2.5 9.55006C2.5 12.4795 3.40326 14.444 4.89892 15.7017C6.34442 16.9172 8.19555 17.3411 9.81674 17.5424L10.0633 15.5577C8.54445 15.369 7.17558 15.003 6.18608 14.1709C5.24674 13.3811 4.5 12.0406 4.5 9.55006H2.5ZM9.2214 15.8546C8.35857 16.7462 7.91542 17.9626 8.00246 19.2002L9.99754 19.0599C9.95033 18.3887 10.1907 17.729 10.6586 17.2455L9.2214 15.8546ZM8 19.1301V23.0001H10V19.1301H8Z" fill="black"/>
</svg>
