<svg width="25" height="24" viewBox="0 0 25 24" fill="none" xmlns="http://www.w3.org/2000/svg">
<path fill-rule="evenodd" clip-rule="evenodd" d="M22.65 14.39L12 22.13L1.34996 14.39C1.05707 14.1746 0.935999 13.7952 1.04996 13.45L2.26996 9.66996L4.70996 2.15996C4.73362 2.09877 4.7713 2.04397 4.81996 1.99996C4.98419 1.84995 5.23572 1.84995 5.39996 1.99996C5.45134 2.04963 5.4892 2.11158 5.50996 2.17996L7.94996 9.66996H16.05L18.49 2.15996C18.5136 2.09877 18.5513 2.04397 18.6 1.99996C18.7642 1.84995 19.0157 1.84995 19.18 1.99996C19.2313 2.04963 19.2692 2.11158 19.29 2.17996L21.73 9.68996L23 13.45C23.1037 13.8062 22.9614 14.1883 22.65 14.39Z" stroke="black" stroke-width="2" stroke-linecap="round" stroke-linejoin="round"/>
</svg>
