<svg width="24" height="24" viewBox="0 0 24 24" fill="none" xmlns="http://www.w3.org/2000/svg">
<path d="M21.3335 18.6684H2.66683V14.2151C2.17033 13.9772 1.71912 13.6546 1.3335 13.2617V18.6684C1.3335 19.022 1.47397 19.3611 1.72402 19.6112C1.97407 19.8612 2.31321 20.0017 2.66683 20.0017H21.3335C21.6871 20.0017 22.0263 19.8612 22.2763 19.6112C22.5264 19.3611 22.6668 19.022 22.6668 18.6684V13.2617C22.284 13.6562 21.8321 13.977 21.3335 14.2084V18.6684Z" fill="#828282"/>
<path d="M16.6668 14.9317C16.8436 14.9317 17.0132 14.8614 17.1382 14.7364C17.2633 14.6114 17.3335 14.4418 17.3335 14.265V10.625H16.0002V11.9983H9.3335V13.3317H16.0002V14.265C16.0002 14.4418 16.0704 14.6114 16.1954 14.7364C16.3204 14.8614 16.49 14.9317 16.6668 14.9317Z" fill="#828282"/>
<path d="M22.0002 3.99882H16.0002V2.91882C15.9931 2.4921 15.8173 2.08553 15.5112 1.78815C15.2051 1.49077 14.7936 1.32681 14.3668 1.33216H9.6335C9.20674 1.32681 8.79526 1.49077 8.48913 1.78815C8.183 2.08553 8.00718 2.4921 8.00016 2.91882V3.99882H2.00016C1.82335 3.99882 1.65378 4.06906 1.52876 4.19409C1.40373 4.31911 1.3335 4.48868 1.3335 4.66549V9.99883C1.3335 10.8829 1.68469 11.7307 2.30981 12.3558C2.93493 12.981 3.78277 13.3322 4.66683 13.3322H6.66683V14.2655C6.66683 14.4423 6.73707 14.6119 6.86209 14.7369C6.98712 14.8619 7.15669 14.9322 7.3335 14.9322C7.51031 14.9322 7.67988 14.8619 7.8049 14.7369C7.92992 14.6119 8.00016 14.4423 8.00016 14.2655V10.6255H6.66683V11.9988H4.66683C4.1364 11.9988 3.62769 11.7881 3.25262 11.413C2.87754 11.038 2.66683 10.5293 2.66683 9.99883V5.33216H21.3335V9.99883C21.3335 10.5293 21.1228 11.038 20.7477 11.413C20.3726 11.7881 19.8639 11.9988 19.3335 11.9988H18.6668V13.3322H19.3335C20.2176 13.3322 21.0654 12.981 21.6905 12.3558C22.3156 11.7307 22.6668 10.8829 22.6668 9.99883V4.66549C22.6668 4.48868 22.5966 4.31911 22.4716 4.19409C22.3465 4.06906 22.177 3.99882 22.0002 3.99882ZM14.6668 3.99882H9.3335V2.95216C9.33693 2.87493 9.37005 2.802 9.42594 2.74859C9.48184 2.69519 9.55619 2.66542 9.6335 2.66549H14.3735C14.4111 2.66461 14.4486 2.67115 14.4837 2.68474C14.5188 2.69833 14.5509 2.71871 14.5782 2.74472C14.6054 2.77072 14.6273 2.80183 14.6425 2.83628C14.6577 2.87073 14.666 2.90784 14.6668 2.94549V3.99882Z" fill="#828282"/>
</svg>
