<svg width="24" height="24" viewBox="0 0 24 24" fill="none" xmlns="http://www.w3.org/2000/svg">
<path d="M17.3409 11.1836C17.4559 11.0645 17.5196 10.905 17.5181 10.7394C17.5167 10.5738 17.4503 10.4154 17.3332 10.2983C17.2161 10.1812 17.0577 10.1147 16.8921 10.1133C16.7265 10.1119 16.5669 10.1755 16.4478 10.2906L11.8417 14.8967L9.76193 12.8169C9.64282 12.7018 9.48328 12.6382 9.31768 12.6396C9.15208 12.6411 8.99367 12.7075 8.87658 12.8246C8.75948 12.9417 8.69305 13.1001 8.69161 13.2657C8.69017 13.4313 8.75383 13.5908 8.86888 13.7099L11.8417 16.6828L17.3409 11.1836Z" fill="#828282"/>
<path fill-rule="evenodd" clip-rule="evenodd" d="M20.6842 6.31579V19.5789C20.6842 20.0815 20.4846 20.5634 20.1292 20.9187C19.7739 21.2741 19.292 21.4737 18.7895 21.4737H7.42104C6.91853 21.4737 6.43659 21.2741 6.08126 20.9187C5.72593 20.5634 5.52631 20.0815 5.52631 19.5789V1.89474C5.52631 1.39222 5.72593 0.910288 6.08126 0.554956C6.43659 0.199624 6.91853 0 7.42104 0H14.3684L20.6842 6.31579ZM14.3684 6.94737C14.2009 6.94737 14.0403 6.88083 13.9218 6.76238C13.8034 6.64394 13.7368 6.48329 13.7368 6.31579V1.26316H7.42104C7.25354 1.26316 7.09289 1.3297 6.97445 1.44814C6.856 1.56659 6.78946 1.72723 6.78946 1.89474V19.5789C6.78946 19.7465 6.856 19.9071 6.97445 20.0255C7.09289 20.144 7.25354 20.2105 7.42104 20.2105H18.7895C18.957 20.2105 19.1176 20.144 19.2361 20.0255C19.3545 19.9071 19.421 19.7465 19.421 19.5789V6.94737H14.3684ZM15 2.41768L18.2665 5.68421H15V2.41768Z" fill="#828282"/>
<path d="M4.26316 3.78906V20.8417C4.26316 21.3442 4.46278 21.8261 4.81811 22.1815C5.17345 22.5368 5.65538 22.7364 6.15789 22.7364H18.1579V23.9996H6.15789C5.32037 23.9996 4.51715 23.6669 3.92493 23.0747C3.33271 22.4824 3 21.6792 3 20.8417V3.78906H4.26316Z" fill="#828282"/>
</svg>
