<svg width="16" height="17" viewBox="0 0 16 17" fill="none" xmlns="http://www.w3.org/2000/svg">
<g id="chevron-left 1">
<path id="Vector" fill-rule="evenodd" clip-rule="evenodd" d="M11.3539 1.99638C11.4005 2.04283 11.4374 2.098 11.4626 2.15875C11.4878 2.21949 11.5008 2.28461 11.5008 2.35038C11.5008 2.41615 11.4878 2.48127 11.4626 2.54201C11.4374 2.60276 11.4005 2.65794 11.3539 2.70438L5.70692 8.35038L11.3539 13.9964C11.4478 14.0903 11.5005 14.2176 11.5005 14.3504C11.5005 14.4832 11.4478 14.6105 11.3539 14.7044C11.26 14.7983 11.1327 14.851 10.9999 14.851C10.8671 14.851 10.7398 14.7983 10.6459 14.7044L4.64592 8.70438C4.59935 8.65794 4.56241 8.60276 4.5372 8.54201C4.512 8.48127 4.49902 8.41615 4.49902 8.35038C4.49902 8.28461 4.512 8.21949 4.5372 8.15875C4.56241 8.098 4.59935 8.04283 4.64592 7.99638L10.6459 1.99638C10.6924 1.94982 10.7475 1.91288 10.8083 1.88767C10.869 1.86246 10.9341 1.84949 10.9999 1.84949C11.0657 1.84949 11.1308 1.86246 11.1916 1.88767C11.2523 1.91288 11.3075 1.94982 11.3539 1.99638Z" fill="#333333"/>
</g>
</svg>
