<svg width="54" height="54" viewBox="0 0 54 54" fill="none" xmlns="http://www.w3.org/2000/svg">
<path d="M27 6.7498C29.4311 6.74702 31.8428 7.18301 34.119 8.0368L31.4573 10.7188C27.8746 9.7384 24.0685 9.96745 20.6293 11.3704C17.19 12.7734 14.3097 15.2719 12.4351 18.4786C10.5604 21.6852 9.79611 25.4207 10.2607 29.106C10.7253 32.7912 12.3927 36.2202 15.0046 38.8613C17.6164 41.5023 21.0267 43.2078 24.7065 43.7134C28.3864 44.2189 32.1302 43.4962 35.3575 41.6573C38.5847 39.8184 41.1151 36.9661 42.5563 33.5426C43.9974 30.1192 44.2688 26.3159 43.3283 22.7226L46.0148 20.0158C46.8342 22.253 47.2523 24.6173 47.25 26.9998C47.25 31.0049 46.0624 34.92 43.8373 38.2501C41.6122 41.5802 38.4496 44.1757 34.7493 45.7084C31.0491 47.241 26.9775 47.6421 23.0494 46.8607C19.1213 46.0794 15.5131 44.1507 12.6811 41.3187C9.84908 38.4867 7.92046 34.8785 7.13911 30.9504C6.35776 27.0223 6.75877 22.9507 8.29145 19.2505C9.82412 15.5503 12.4196 12.3876 15.7497 10.1625C19.0798 7.93745 22.9949 6.7498 27 6.7498ZM47.385 6.0118L47.7135 6.3178C48.8766 7.4806 49.5316 9.05692 49.535 10.7016C49.5383 12.3463 48.8899 13.9252 47.7315 15.0928L33.5475 29.3893C33.1406 29.7988 32.6355 30.097 32.0805 30.2556L22.6035 32.9758C22.4104 33.031 22.2061 33.0336 22.0117 32.9831C21.8173 32.9327 21.6399 32.8312 21.498 32.689C21.3561 32.5469 21.2548 32.3694 21.2047 32.1749C21.1546 31.9804 21.1575 31.7761 21.213 31.5831L23.9355 22.0881C24.0924 21.5429 24.3841 21.0461 24.7838 20.6436L38.979 6.33355C40.079 5.22544 41.5584 4.57595 43.1186 4.51623C44.6788 4.45651 46.2036 4.99101 47.385 6.0118ZM41.3753 8.7118L27.1778 23.0218L25.5758 28.6108L31.1513 27.0133L45.3353 12.7146C45.8268 12.2188 46.1187 11.5595 46.1552 10.8623C46.1917 10.1651 45.9703 9.47893 45.5333 8.93455L45.3195 8.6938C44.7943 8.17309 44.0837 7.88225 43.3441 7.8852C42.6045 7.88815 41.8963 8.18466 41.3753 8.70955V8.7118Z" fill="white"/>
</svg>
