<svg width="54" height="54" viewBox="0 0 54 54" fill="none" xmlns="http://www.w3.org/2000/svg">
<path d="M41.5 9.7H41V10.2V12.2992C40.9959 14.7642 40.3517 17.1858 39.1305 19.3271C37.9094 21.468 36.1534 23.2551 34.0343 24.5136C33.1672 25.0235 32.6 25.8809 32.6 26.8341V27.1659C32.6 28.118 33.1682 28.9749 34.036 29.4883C36.1549 30.7465 37.9106 32.5335 39.1314 34.6741C40.3522 36.815 40.9961 39.2363 41 41.7008V43.8V44.3H41.5H43.1V47.5H10.5V44.3H12.1H12.6V43.8V41.7004C12.6042 39.2356 13.2484 36.814 14.4695 34.6729C15.6908 32.5317 17.4471 30.7443 19.5667 29.4858C20.4316 28.9727 21 28.1183 21 27.1659V26.8341C21 25.8809 20.4328 25.0235 19.5657 24.5136C17.4466 23.2551 15.6906 21.468 14.4695 19.3271C13.2484 17.186 12.6042 14.7644 12.6 12.2996V10.2V9.7H12.1H10.5V6.5H43.1V9.7H41.5ZM32.4126 32.2444L32.4113 32.2437C30.5123 31.1222 29.4 29.2204 29.4 27.1659V26.8341C29.4 24.7774 30.5145 22.8737 32.4109 21.7566L32.4113 21.7564C35.7373 19.7929 37.8 16.1723 37.8 12.3V10.2V9.7H37.3H16.3H15.8V10.2L15.8 12.3L15.8 12.3007C15.8026 14.2082 16.3005 16.0824 17.2448 17.7398C18.1892 19.3971 19.5477 20.7809 21.1874 21.7556L21.1891 21.7566C23.0855 22.8737 24.2 24.7774 24.2 26.8341V27.1659C24.2 29.2205 23.0876 31.1222 21.1909 32.2415L21.1895 32.2423C19.5494 33.2172 18.1905 34.6013 17.2458 36.259C16.3011 37.9167 15.8029 39.7912 15.8 41.6992V41.7V43.8V44.3H16.3H37.3H37.8V43.8V41.7V41.6993C37.7974 39.7918 37.2995 37.9176 36.3552 36.2602C35.4108 34.6029 34.0523 33.2191 32.4126 32.2444Z" fill="white" stroke="#549A3C"/>
</svg>
