<svg width="15" height="15" viewBox="0 0 15 15" fill="none" xmlns="http://www.w3.org/2000/svg">
<path fill-rule="evenodd" clip-rule="evenodd" d="M14.57 2.08927C14.4961 3.49209 14.2348 4.85975 13.8162 6.16318C12.2806 5.493 10.447 6.06368 9.59387 7.55356C8.72755 9.03905 9.15312 10.9231 10.5146 11.9099C9.57177 12.9583 8.4951 13.8861 7.28137 14.668C6.07205 13.8861 4.99468 12.9583 4.05536 11.9099C5.41684 10.9231 5.8366 9.03905 4.97644 7.55356C4.11716 6.06368 2.28939 5.493 0.753767 6.16318C0.337759 4.85975 0.0738788 3.49209 0 2.08927C1.26298 1.43491 2.59022 0.972313 3.94027 0.681196C4.12936 2.34347 5.53842 3.64421 7.25698 3.64421C8.97642 3.64421 10.388 2.3408 10.5709 0.667969C11.9456 0.957327 13.292 1.42876 14.57 2.08927Z" fill="#DD2323"/>
</svg>
