<svg width="16" height="17" viewBox="0 0 16 17" fill="none" xmlns="http://www.w3.org/2000/svg">
<path fill-rule="evenodd" clip-rule="evenodd" d="M4.64592 1.99638C4.69236 1.94982 4.74754 1.91288 4.80828 1.88767C4.86903 1.86246 4.93415 1.84949 4.99992 1.84949C5.06568 1.84949 5.13081 1.86246 5.19155 1.88767C5.2523 1.91288 5.30747 1.94982 5.35392 1.99638L11.3539 7.99638C11.4005 8.04283 11.4374 8.098 11.4626 8.15875C11.4878 8.21949 11.5008 8.28461 11.5008 8.35038C11.5008 8.41615 11.4878 8.48127 11.4626 8.54201C11.4374 8.60276 11.4005 8.65794 11.3539 8.70438L5.35392 14.7044C5.26003 14.7983 5.13269 14.851 4.99992 14.851C4.86714 14.851 4.7398 14.7983 4.64592 14.7044C4.55203 14.6105 4.49929 14.4832 4.49929 14.3504C4.49929 14.2176 4.55203 14.0903 4.64592 13.9964L10.2929 8.35038L4.64592 2.70438C4.59935 2.65794 4.56241 2.60276 4.5372 2.54201C4.512 2.48127 4.49902 2.41615 4.49902 2.35038C4.49902 2.28461 4.512 2.21949 4.5372 2.15875C4.56241 2.098 4.59935 2.04283 4.64592 1.99638Z" fill="#333333"/>
</svg>
