<svg width="21" height="20" viewBox="0 0 21 20" fill="none" xmlns="http://www.w3.org/2000/svg">
<path fill-rule="evenodd" clip-rule="evenodd" d="M10.2975 2.99951C10.4301 2.99951 10.5573 3.05219 10.6511 3.14596C10.7448 3.23973 10.7975 3.3669 10.7975 3.49951V15.2925L13.9435 12.1455C14.0374 12.0516 14.1647 11.9989 14.2975 11.9989C14.4303 11.9989 14.5576 12.0516 14.6515 12.1455C14.7454 12.2394 14.7981 12.3667 14.7981 12.4995C14.7981 12.6323 14.7454 12.7596 14.6515 12.8535L10.6515 16.8535C10.6051 16.9001 10.5499 16.937 10.4891 16.9622C10.4284 16.9874 10.3633 17.0004 10.2975 17.0004C10.2317 17.0004 10.1666 16.9874 10.1059 16.9622C10.0451 16.937 9.98995 16.9001 9.94351 16.8535L5.94351 12.8535C5.84962 12.7596 5.79687 12.6323 5.79688 12.4995C5.79688 12.3667 5.84962 12.2394 5.94351 12.1455C6.03739 12.0516 6.16473 11.9989 6.29751 11.9989C6.43028 11.9989 6.55762 12.0516 6.65151 12.1455L9.79751 15.2925V3.49951C9.79751 3.3669 9.85019 3.23973 9.94395 3.14596C10.0377 3.05219 10.1649 2.99951 10.2975 2.99951Z" fill="#549A3C"/>
</svg>
