<svg width="20" height="21" viewBox="0 0 20 21" fill="none" xmlns="http://www.w3.org/2000/svg">
<path d="M0 5.96606C0 5.30302 0.263392 4.66714 0.732233 4.1983C1.20107 3.72946 1.83696 3.46606 2.5 3.46606H17.5C18.163 3.46606 18.7989 3.72946 19.2678 4.1983C19.7366 4.66714 20 5.30302 20 5.96606V15.9661C20 16.6291 19.7366 17.265 19.2678 17.7338C18.7989 18.2027 18.163 18.4661 17.5 18.4661H2.5C1.83696 18.4661 1.20107 18.2027 0.732233 17.7338C0.263392 17.265 0 16.6291 0 15.9661V5.96606ZM2.5 4.71606C2.16848 4.71606 1.85054 4.84776 1.61612 5.08218C1.3817 5.3166 1.25 5.63454 1.25 5.96606V6.23731L10 11.4873L18.75 6.23731V5.96606C18.75 5.63454 18.6183 5.3166 18.3839 5.08218C18.1495 4.84776 17.8315 4.71606 17.5 4.71606H2.5ZM18.75 7.69481L12.865 11.2261L18.75 14.8473V7.69481ZM18.7075 16.2898L11.6575 11.9511L10 12.9448L8.3425 11.9511L1.2925 16.2886C1.36353 16.5546 1.5204 16.7897 1.73874 16.9574C1.95708 17.1251 2.22468 17.216 2.5 17.2161H17.5C17.7752 17.2161 18.0426 17.1253 18.261 16.9579C18.4793 16.7904 18.6362 16.5556 18.7075 16.2898ZM1.25 14.8473L7.135 11.2261L1.25 7.69481V14.8473Z" fill="#549A3C"/>
</svg>
