<svg width="17" height="17" viewBox="0 0 17 17" fill="none" xmlns="http://www.w3.org/2000/svg">
<g clip-path="url(#clip0_3754_11872)">
<path d="M14.4509 1.43476L14.5999 1.28576C14.7121 1.17367 14.8452 1.08478 14.9917 1.02414C15.1382 0.963511 15.2952 0.932327 15.4538 0.932373C15.6124 0.93242 15.7693 0.963695 15.9158 1.02442C16.0623 1.08513 16.1954 1.17411 16.3074 1.28626C16.4195 1.39841 16.5084 1.53153 16.5691 1.67804C16.6297 1.82454 16.6609 1.98156 16.6608 2.14011C16.6608 2.29867 16.6295 2.45566 16.5688 2.60213C16.5081 2.7486 16.4191 2.88167 16.3069 2.99376L16.1579 3.14176C16.4128 3.42762 16.5487 3.80015 16.5377 4.18299C16.5268 4.56582 16.3698 4.92996 16.0989 5.20076L5.80694 15.4938C5.7426 15.5578 5.66206 15.603 5.57394 15.6248L1.57394 16.6248C1.49023 16.6456 1.40256 16.6444 1.31943 16.6214C1.23631 16.5983 1.16057 16.5541 1.09957 16.4931C1.03857 16.4321 0.994395 16.3564 0.97133 16.2733C0.948264 16.1901 0.947097 16.1025 0.967941 16.0188L1.96794 12.0188C1.98982 11.931 2.03509 11.8508 2.09894 11.7868L11.7409 2.14476C11.6445 2.07689 11.5272 2.04528 11.4097 2.05553C11.2922 2.06578 11.1822 2.11722 11.0989 2.20076L7.80694 5.49376C7.76045 5.54025 7.70526 5.57712 7.64452 5.60228C7.58379 5.62744 7.51868 5.64039 7.45294 5.64039C7.3872 5.64039 7.3221 5.62744 7.26136 5.60228C7.20062 5.57712 7.14543 5.54025 7.09894 5.49376C7.05245 5.44727 7.01558 5.39208 6.99042 5.33134C6.96526 5.2706 6.95231 5.2055 6.95231 5.13976C6.95231 5.07401 6.96526 5.00891 6.99042 4.94817C7.01558 4.88743 7.05245 4.83225 7.09894 4.78576L10.3929 1.49376C10.6639 1.22277 11.0283 1.06578 11.4114 1.05499C11.7945 1.04421 12.1671 1.18045 12.4529 1.43576C12.7277 1.1902 13.0832 1.05437 13.4517 1.05419C13.8203 1.054 14.1759 1.18947 14.4509 1.43476ZM13.8069 2.20076C13.7132 2.10702 13.586 2.05436 13.4534 2.05436C13.3209 2.05436 13.1937 2.10702 13.0999 2.20076L2.90294 12.3958L2.13894 15.4528L5.19594 14.6888L15.3929 4.49376C15.4395 4.44731 15.4764 4.39214 15.5017 4.33139C15.5269 4.27065 15.5398 4.20553 15.5398 4.13976C15.5398 4.07399 15.5269 4.00887 15.5017 3.94812C15.4764 3.88738 15.4395 3.8322 15.3929 3.78576L13.8069 2.20076Z" fill="#666666"/>
</g>
<defs>
<clipPath id="clip0_3754_11872">
<rect width="16" height="16" fill="white" transform="translate(0.953125 0.639771)"/>
</clipPath>
</defs>
</svg>
