<svg width="25" height="24" viewBox="0 0 25 24" fill="none" xmlns="http://www.w3.org/2000/svg">
<path fill-rule="evenodd" clip-rule="evenodd" d="M16.5788 12.2189C16.6487 12.2885 16.7041 12.3713 16.7419 12.4624C16.7797 12.5535 16.7992 12.6512 16.7992 12.7499C16.7992 12.8485 16.7797 12.9462 16.7419 13.0373C16.7041 13.1284 16.6487 13.2112 16.5788 13.2809L12.0788 17.7809C12.0092 17.8507 11.9264 17.9061 11.8353 17.9439C11.7442 17.9818 11.6465 18.0012 11.5478 18.0012C11.4492 18.0012 11.3515 17.9818 11.2604 17.9439C11.1693 17.9061 11.0865 17.8507 11.0168 17.7809L8.76682 15.5309C8.69709 15.4611 8.64178 15.3784 8.60404 15.2873C8.5663 15.1961 8.54688 15.0985 8.54688 14.9999C8.54688 14.9013 8.5663 14.8036 8.60404 14.7125C8.64178 14.6214 8.69709 14.5386 8.76682 14.4689C8.90765 14.328 9.09866 14.2489 9.29782 14.2489C9.39644 14.2489 9.49409 14.2684 9.5852 14.3061C9.67631 14.3438 9.75909 14.3991 9.82882 14.4689L11.5478 16.1894L15.5168 12.2189C15.5865 12.149 15.6693 12.0936 15.7604 12.0558C15.8515 12.018 15.9492 11.9985 16.0478 11.9985C16.1465 11.9985 16.2442 12.018 16.3353 12.0558C16.4264 12.0936 16.5092 12.149 16.5788 12.2189Z" fill="#549A3C"/>
<path d="M12.2969 1.5C13.2914 1.5 14.2453 1.89509 14.9485 2.59835C15.6518 3.30161 16.0469 4.25544 16.0469 5.25V6H8.54688V5.25C8.54688 4.25544 8.94196 3.30161 9.64522 2.59835C10.3485 1.89509 11.3023 1.5 12.2969 1.5ZM17.5469 6V5.25C17.5469 3.85761 16.9938 2.52226 16.0092 1.53769C15.0246 0.553123 13.6893 0 12.2969 0C10.9045 0 9.56913 0.553123 8.58456 1.53769C7.6 2.52226 7.04688 3.85761 7.04688 5.25V6H1.79688V21C1.79688 21.7956 2.11295 22.5587 2.67555 23.1213C3.23816 23.6839 4.00123 24 4.79688 24H19.7969C20.5925 24 21.3556 23.6839 21.9182 23.1213C22.4808 22.5587 22.7969 21.7956 22.7969 21V6H17.5469ZM3.29688 7.5H21.2969V21C21.2969 21.3978 21.1388 21.7794 20.8575 22.0607C20.5762 22.342 20.1947 22.5 19.7969 22.5H4.79688C4.39905 22.5 4.01752 22.342 3.73621 22.0607C3.45491 21.7794 3.29688 21.3978 3.29688 21V7.5Z" fill="#549A3C"/>
</svg>
