<svg width="22" height="24" viewBox="0 0 22 24" fill="none" xmlns="http://www.w3.org/2000/svg">
<path d="M14.4187 18.7692V19.6154C14.4187 20.513 14.0419 21.3739 13.3713 22.0087C12.7007 22.6434 11.7912 23 10.8428 23C9.89438 23 8.98483 22.6434 8.31422 22.0087C7.6436 21.3739 7.26686 20.513 7.26686 19.6154V18.7692M20.4352 17.0468C19.0003 15.3846 17.9873 14.5385 17.9873 9.95601C17.9873 5.75962 15.7233 4.26457 13.86 3.53846C13.6124 3.44221 13.3794 3.22115 13.304 2.98053C12.9771 1.9276 12.0608 1 10.8428 1C9.62473 1 8.70784 1.92813 8.38433 2.98159C8.3089 3.22486 8.07591 3.44221 7.82839 3.53846C5.96277 4.26563 3.701 5.75538 3.701 9.95601C3.69821 14.5385 2.68522 15.3846 1.25038 17.0468C0.655885 17.7353 1.17663 18.7692 2.21644 18.7692H19.4747C20.5089 18.7692 21.0263 17.7322 20.4352 17.0468Z" stroke="#828282" stroke-linecap="round" stroke-linejoin="round"/>
</svg>
