<svg width="25" height="25" viewBox="0 0 25 25" fill="none" xmlns="http://www.w3.org/2000/svg">
<path d="M21.9218 1.028L8.26497 1C6.95697 1 5.89297 2.064 5.89297 3.372V5.4216L2.66497 5.4284C1.35697 5.4284 0.292969 6.4924 0.292969 7.8004V16.2568C0.292969 17.5648 1.35697 18.6284 2.66457 18.6284H5.09297V22.6284C5.09297 22.7936 5.19457 22.942 5.34857 23.0016C5.39577 23.0196 5.44457 23.0284 5.49297 23.0284C5.60337 23.0284 5.71177 22.9824 5.78897 22.8976L9.67057 18.6276L16.321 18.6004C17.629 18.6004 18.693 17.5364 18.693 16.2288V16.1832L20.797 18.4976C20.8742 18.5824 20.9822 18.6284 21.093 18.6284C21.1414 18.6284 21.1902 18.6196 21.2374 18.6016C21.3914 18.5416 21.493 18.3932 21.493 18.228V14.228H21.921C23.229 14.228 24.293 13.164 24.293 11.8564V3.4C24.293 2.0924 23.2294 1.0284 21.9218 1.028ZM17.893 16.2284C17.893 17.0952 17.1878 17.8 16.3194 17.8L9.49137 17.828C9.37897 17.8284 9.27257 17.876 9.19697 17.9588L5.89297 21.5936V18.228C5.89297 18.0072 5.71377 17.828 5.49297 17.828H2.66457C1.79817 17.828 1.09297 17.1228 1.09297 16.2564V7.8C1.09297 6.9332 1.79817 6.228 2.66577 6.228L6.29297 6.2204H6.29377L16.2418 6.2H16.321C16.8626 6.2 17.3414 6.4756 17.6242 6.8936C17.7938 7.1444 17.893 7.4468 17.893 7.772V15.1484V16.2284ZM23.493 11.8564C23.493 12.7232 22.7878 13.428 21.921 13.428H21.093C20.8722 13.428 20.693 13.6072 20.693 13.828V17.1936L18.693 14.9936V7.772C18.693 7.6084 18.6762 7.4488 18.6446 7.2948C18.6286 7.2176 18.609 7.142 18.5862 7.0676C18.2854 6.1028 17.3838 5.4004 16.3206 5.4004H16.279L6.69297 5.4196V3.3716C6.69297 2.5048 7.39817 1.7996 8.26417 1.7996L21.9206 1.8276H21.921C22.7878 1.8276 23.493 2.5328 23.493 3.3996V11.8564Z" fill="black"/>
</svg>
