<svg width="20" height="21" viewBox="0 0 20 21" fill="none" xmlns="http://www.w3.org/2000/svg">
<path d="M4.5676 2.62619C4.49381 2.53127 4.40066 2.45313 4.29435 2.39697C4.18804 2.34081 4.071 2.30792 3.951 2.30047C3.831 2.29302 3.71078 2.31119 3.59835 2.35377C3.48591 2.39635 3.38381 2.46237 3.29885 2.54744L2.00635 3.84119C1.4026 4.44619 1.1801 5.30244 1.44385 6.05369C2.53852 9.16317 4.31922 11.9863 6.65385 14.3137C8.98126 16.6483 11.8044 18.429 14.9138 19.5237C15.6651 19.7874 16.5213 19.5649 17.1263 18.9612L18.4188 17.6687C18.5039 17.5837 18.5699 17.4816 18.6125 17.3692C18.6551 17.2568 18.6733 17.1365 18.6658 17.0165C18.6584 16.8965 18.6255 16.7795 18.5693 16.6732C18.5132 16.5669 18.435 16.4737 18.3401 16.3999L15.4563 14.1574C15.3549 14.0788 15.237 14.0242 15.1114 13.9978C14.9858 13.9714 14.8559 13.9738 14.7313 14.0049L11.9938 14.6887C11.6284 14.78 11.2456 14.7752 10.8827 14.6746C10.5197 14.5741 10.1889 14.3813 9.9226 14.1149L6.8526 11.0437C6.58606 10.7775 6.39301 10.4468 6.29224 10.0838C6.19147 9.72084 6.18643 9.33795 6.2776 8.97244L6.9626 6.23494C6.99373 6.11043 6.99618 5.98048 6.96977 5.85489C6.94335 5.7293 6.88875 5.61135 6.8101 5.50994L4.5676 2.62619ZM2.3551 1.60494C2.57384 1.38613 2.83664 1.21635 3.12602 1.10689C3.41541 0.997429 3.72478 0.950785 4.03358 0.970055C4.34238 0.989326 4.64354 1.07407 4.91708 1.21866C5.19061 1.36325 5.43026 1.56438 5.6201 1.80869L7.8626 4.69119C8.27385 5.21994 8.41885 5.90869 8.25635 6.55869L7.5726 9.29619C7.53725 9.43798 7.53916 9.5865 7.57814 9.72733C7.61713 9.86816 7.69187 9.99652 7.7951 10.0999L10.8663 13.1712C10.9699 13.2746 11.0985 13.3495 11.2395 13.3885C11.3806 13.4275 11.5294 13.4293 11.6713 13.3937L14.4076 12.7099C14.7284 12.6297 15.0632 12.6235 15.3867 12.6917C15.7102 12.7599 16.014 12.9008 16.2751 13.1037L19.1576 15.3462C20.1938 16.1524 20.2888 17.6837 19.3613 18.6099L18.0688 19.9024C17.1438 20.8274 15.7613 21.2337 14.4726 20.7799C11.1741 19.6193 8.17919 17.731 5.7101 15.2549C3.23421 12.7862 1.34586 9.79176 0.1851 6.49369C-0.2674 5.20619 0.13885 3.82244 1.06385 2.89744L2.35635 1.60494H2.3551Z" fill="#549A3C"/>
</svg>
