<svg width="25" height="24" viewBox="0 0 25 24" fill="none" xmlns="http://www.w3.org/2000/svg">
<g opacity="0.24">
<path d="M21.0858 19.29L17.6241 15.9C18.741 14.5025 19.347 12.7767 19.3448 11C19.3448 9.41775 18.8671 7.87103 17.9721 6.55544C17.0771 5.23985 15.805 4.21447 14.3167 3.60897C12.8284 3.00347 11.1907 2.84504 9.61072 3.15372C8.03074 3.4624 6.57943 4.22433 5.44032 5.34315C4.30122 6.46197 3.52547 7.88743 3.2112 9.43928C2.89692 10.9911 3.05822 12.5997 3.6747 14.0615C4.29118 15.5233 5.33515 16.7727 6.67459 17.6518C8.01404 18.5308 9.5888 19 11.1997 19C13.0086 19.0022 14.7657 18.407 16.1886 17.31L19.64 20.71C19.7347 20.8037 19.8473 20.8781 19.9714 20.9289C20.0954 20.9797 20.2285 21.0058 20.3629 21.0058C20.4973 21.0058 20.6304 20.9797 20.7545 20.9289C20.8785 20.8781 20.9911 20.8037 21.0858 20.71C21.1812 20.617 21.257 20.5064 21.3087 20.3846C21.3603 20.2627 21.387 20.132 21.387 20C21.387 19.868 21.3603 19.7373 21.3087 19.6154C21.257 19.4936 21.1812 19.383 21.0858 19.29ZM5.09095 11C5.09095 9.81331 5.44923 8.65328 6.12047 7.66658C6.79171 6.67989 7.74577 5.91085 8.86201 5.45673C9.97824 5.0026 11.2065 4.88378 12.3915 5.11529C13.5765 5.3468 14.665 5.91825 15.5193 6.75736C16.3736 7.59648 16.9554 8.66558 17.1911 9.82946C17.4269 10.9933 17.3059 12.1997 16.8435 13.2961C16.3812 14.3925 15.5982 15.3295 14.5936 15.9888C13.589 16.6481 12.4079 17 11.1997 17C9.57959 17 8.02579 16.3679 6.88018 15.2426C5.73456 14.1174 5.09095 12.5913 5.09095 11Z" fill="black" fill-opacity="0.5"/>
</g>
</svg>
