<svg width="17" height="17" viewBox="0 0 17 17" fill="none" xmlns="http://www.w3.org/2000/svg">
<g clip-path="url(#clip0_3754_11867)">
<path d="M16.9531 8.63977C16.9531 8.63977 13.9531 3.13977 8.95312 3.13977C3.95312 3.13977 0.953125 8.63977 0.953125 8.63977C0.953125 8.63977 3.95312 14.1398 8.95312 14.1398C13.9531 14.1398 16.9531 8.63977 16.9531 8.63977ZM2.12612 8.63977C2.60964 7.90489 3.16577 7.22046 3.78612 6.59677C5.07312 5.30777 6.83313 4.13977 8.95312 4.13977C11.0731 4.13977 12.8321 5.30777 14.1211 6.59677C14.7415 7.22046 15.2976 7.90489 15.7811 8.63977C15.7231 8.72677 15.6591 8.82277 15.5861 8.92777C15.2511 9.40777 14.7561 10.0478 14.1211 10.6828C12.8321 11.9718 11.0721 13.1398 8.95312 13.1398C6.83313 13.1398 5.07413 11.9718 3.78513 10.6828C3.16477 10.0591 2.60965 9.37464 2.12612 8.63977Z" fill="#666666"/>
<path d="M8.95312 6.13977C8.29008 6.13977 7.6542 6.40316 7.18536 6.872C6.71652 7.34084 6.45312 7.97673 6.45312 8.63977C6.45312 9.30281 6.71652 9.9387 7.18536 10.4075C7.6542 10.8764 8.29008 11.1398 8.95312 11.1398C9.61617 11.1398 10.2521 10.8764 10.7209 10.4075C11.1897 9.9387 11.4531 9.30281 11.4531 8.63977C11.4531 7.97673 11.1897 7.34084 10.7209 6.872C10.2521 6.40316 9.61617 6.13977 8.95312 6.13977ZM5.45312 8.63977C5.45312 7.71151 5.82187 6.82127 6.47825 6.1649C7.13463 5.50852 8.02487 5.13977 8.95312 5.13977C9.88138 5.13977 10.7716 5.50852 11.428 6.1649C12.0844 6.82127 12.4531 7.71151 12.4531 8.63977C12.4531 9.56803 12.0844 10.4583 11.428 11.1146C10.7716 11.771 9.88138 12.1398 8.95312 12.1398C8.02487 12.1398 7.13463 11.771 6.47825 11.1146C5.82187 10.4583 5.45312 9.56803 5.45312 8.63977Z" fill="#666666"/>
</g>
<defs>
<clipPath id="clip0_3754_11867">
<rect width="16" height="16" fill="white" transform="translate(0.953125 0.639771)"/>
</clipPath>
</defs>
</svg>
