<svg width="24" height="24" viewBox="0 0 24 24" fill="none" xmlns="http://www.w3.org/2000/svg">
<path d="M3.42858 13.7151L12.8572 13.716C13.2895 13.7161 13.7058 13.8795 14.0228 14.1736C14.3397 14.4676 14.5339 14.8706 14.5663 15.3017L14.5714 15.4303V17.5723C14.5706 21.1723 10.8969 22.2866 8.14287 22.2866C5.44372 22.2866 1.86087 21.2168 1.71858 17.7848L1.71429 17.5723V15.4294C1.71437 14.9971 1.87781 14.5807 2.17187 14.2638C2.46593 13.9468 2.86888 13.7527 3.30001 13.7203L3.42858 13.7151ZM20.5714 13.7151L20.7 13.7203C21.108 13.7511 21.4915 13.9267 21.7813 14.2154C22.0711 14.5042 22.2482 14.887 22.2806 15.2948L22.2857 15.4294V17.1437C22.2849 20.3657 19.3457 21.4294 17.1429 21.4294C16.236 21.4294 15.2066 21.2451 14.3066 20.808C14.5792 20.484 14.8097 20.124 14.9897 19.7211C15.8109 20.0811 16.6963 20.1368 17.0709 20.1428L17.3177 20.1403C18.2057 20.1103 20.8577 19.8111 20.9949 17.3434L21 17.1437V15.4294C20.9999 15.3291 20.9647 15.2321 20.9005 15.1551C20.8363 15.078 20.7472 15.0259 20.6486 15.0077L20.5714 15.0008L15.3849 15.0017C15.314 14.5821 15.1386 14.1871 14.8749 13.8531L14.76 13.7151H20.5714ZM3.42858 15.0008L3.34287 15.0094C3.2606 15.0265 3.18501 15.067 3.12515 15.126C3.06616 15.1855 3.02567 15.2608 3.00858 15.3428L3.00001 15.4294V17.5723C3.00001 18.72 3.50315 19.5686 4.53858 20.1651C5.39229 20.6588 6.58715 20.9563 7.85058 20.9966L8.14287 21.0008L8.51572 20.9923C9.81858 20.934 13.1263 20.5148 13.2797 17.7711L13.2857 17.5714V15.4303C13.2854 15.33 13.2502 15.2331 13.186 15.1561C13.1218 15.0791 13.0328 15.0269 12.9343 15.0086L12.8572 15.0017L3.42858 15.0008ZM8.14287 2.57227C9.39317 2.57227 10.5923 3.06895 11.4764 3.95305C12.3605 4.83715 12.8572 6.03624 12.8572 7.28655C12.8572 8.53686 12.3605 9.73595 11.4764 10.6201C10.5923 11.5042 9.39317 12.0008 8.14287 12.0008C6.89256 12.0008 5.69346 11.5042 4.80936 10.6201C3.92526 9.73595 3.42858 8.53686 3.42858 7.28655C3.42858 6.03624 3.92526 4.83715 4.80936 3.95305C5.69346 3.06895 6.89256 2.57227 8.14287 2.57227ZM17.5714 4.28655C18.078 4.28655 18.5795 4.38632 19.0475 4.58016C19.5155 4.774 19.9407 5.05811 20.2988 5.41628C20.657 5.77445 20.9411 6.19966 21.135 6.66763C21.3288 7.1356 21.4286 7.63717 21.4286 8.14369C21.4286 8.65022 21.3288 9.15179 21.135 9.61976C20.9411 10.0877 20.657 10.5129 20.2988 10.8711C19.9407 11.2293 19.5155 11.5134 19.0475 11.7072C18.5795 11.9011 18.078 12.0008 17.5714 12.0008C16.5485 12.0008 15.5674 11.5945 14.844 10.8711C14.1207 10.1478 13.7143 9.16667 13.7143 8.14369C13.7143 7.12072 14.1207 6.13964 14.844 5.41628C15.5674 4.69293 16.5485 4.28655 17.5714 4.28655ZM8.14287 3.85798C6.25201 3.85798 4.71429 5.39569 4.71429 7.28655C4.71429 9.17741 6.25201 10.7151 8.14287 10.7151C10.0337 10.7151 11.5714 9.17741 11.5714 7.28655C11.5714 5.39569 10.0337 3.85798 8.14287 3.85798ZM17.5714 5.57227C16.1537 5.57227 15 6.72598 15 8.14369C15 9.56141 16.1537 10.7151 17.5714 10.7151C18.9891 10.7151 20.1429 9.56141 20.1429 8.14369C20.1429 6.72598 18.9891 5.57227 17.5714 5.57227Z" fill="white"/>
</svg>
