<svg width="20" height="20" viewBox="0 0 20 20" fill="none" xmlns="http://www.w3.org/2000/svg">
<path fill-rule="evenodd" clip-rule="evenodd" d="M18 3.87379C17.9189 5.41429 17.632 6.91619 17.1723 8.34756C15.4859 7.61159 13.4724 8.23828 12.5355 9.8744C11.5842 11.5057 12.0515 13.5746 13.5466 14.6583C12.5112 15.8096 11.3289 16.8285 9.99604 17.6871C8.66802 16.8285 7.4849 15.8096 6.45339 14.6583C7.9485 13.5746 8.40946 11.5057 7.46488 9.8744C6.52126 8.23828 4.51409 7.61159 2.82775 8.34756C2.37091 6.91619 2.08113 5.41429 2 3.87379C3.38694 3.15521 4.84445 2.6472 6.32701 2.32751C6.53466 4.15294 8.08201 5.58135 9.96925 5.58135C11.8575 5.58135 13.4076 4.15 13.6085 2.31299C15.1181 2.63075 16.5966 3.14845 18 3.87379Z" fill="#549A3C"/>
</svg>
