<svg width="16" height="17" viewBox="0 0 16 17" fill="none" xmlns="http://www.w3.org/2000/svg">
<g id="chevron-double-left 1">
<path id="Vector" fill-rule="evenodd" clip-rule="evenodd" d="M8.35392 1.99638C8.40048 2.04283 8.43742 2.098 8.46263 2.15875C8.48784 2.21949 8.50081 2.28461 8.50081 2.35038C8.50081 2.41615 8.48784 2.48127 8.46263 2.54201C8.43742 2.60276 8.40048 2.65794 8.35392 2.70438L2.70692 8.35038L8.35392 13.9964C8.4478 14.0903 8.50055 14.2176 8.50055 14.3504C8.50055 14.4832 8.4478 14.6105 8.35392 14.7044C8.26003 14.7983 8.13269 14.851 7.99992 14.851C7.86714 14.851 7.7398 14.7983 7.64592 14.7044L1.64592 8.70438C1.59935 8.65794 1.56241 8.60276 1.5372 8.54201C1.512 8.48127 1.49902 8.41615 1.49902 8.35038C1.49902 8.28461 1.512 8.21949 1.5372 8.15875C1.56241 8.098 1.59935 8.04283 1.64592 7.99638L7.64592 1.99638C7.69236 1.94982 7.74754 1.91288 7.80828 1.88767C7.86903 1.86246 7.93415 1.84949 7.99992 1.84949C8.06568 1.84949 8.13081 1.86246 8.19155 1.88767C8.2523 1.91288 8.30747 1.94982 8.35392 1.99638Z" fill="#333333"/>
<path id="Vector_2" fill-rule="evenodd" clip-rule="evenodd" d="M12.3539 1.99638C12.4005 2.04283 12.4374 2.098 12.4626 2.15875C12.4878 2.21949 12.5008 2.28461 12.5008 2.35038C12.5008 2.41615 12.4878 2.48127 12.4626 2.54201C12.4374 2.60276 12.4005 2.65794 12.3539 2.70438L6.70692 8.35038L12.3539 13.9964C12.4004 14.0429 12.4373 14.0981 12.4624 14.1588C12.4876 14.2195 12.5005 14.2846 12.5005 14.3504C12.5005 14.4161 12.4876 14.4812 12.4624 14.542C12.4373 14.6027 12.4004 14.6579 12.3539 14.7044C12.3074 14.7509 12.2522 14.7877 12.1915 14.8129C12.1308 14.8381 12.0657 14.851 11.9999 14.851C11.9342 14.851 11.8691 14.8381 11.8083 14.8129C11.7476 14.7877 11.6924 14.7509 11.6459 14.7044L5.64592 8.70438C5.59935 8.65794 5.56241 8.60276 5.5372 8.54201C5.512 8.48127 5.49902 8.41615 5.49902 8.35038C5.49902 8.28461 5.512 8.21949 5.5372 8.15875C5.56241 8.098 5.59935 8.04283 5.64592 7.99638L11.6459 1.99638C11.6924 1.94982 11.7475 1.91288 11.8083 1.88767C11.869 1.86246 11.9341 1.84949 11.9999 1.84949C12.0657 1.84949 12.1308 1.86246 12.1916 1.88767C12.2523 1.91288 12.3075 1.94982 12.3539 1.99638Z" fill="#333333"/>
</g>
</svg>
