<svg width="54" height="54" viewBox="0 0 54 54" fill="none" xmlns="http://www.w3.org/2000/svg">
<path d="M20.25 5.40039C19.892 5.40039 19.5486 5.54262 19.2954 5.7958C19.0422 6.04897 18.9 6.39235 18.9 6.75039C18.9 7.10843 19.0422 7.45181 19.2954 7.70498C19.5486 7.95816 19.892 8.10039 20.25 8.10039H31.05C31.408 8.10039 31.7514 7.95816 32.0046 7.70498C32.2578 7.45181 32.4 7.10843 32.4 6.75039C32.4 6.39235 32.2578 6.04897 32.0046 5.7958C31.7514 5.54262 31.408 5.40039 31.05 5.40039H20.25ZM40.9212 10.6087C40.7967 10.4798 40.6477 10.3769 40.483 10.3062C40.3183 10.2354 40.1411 10.1982 39.9619 10.1966C39.7826 10.195 39.6049 10.2292 39.439 10.2971C39.2731 10.365 39.1223 10.4652 38.9956 10.592C38.8688 10.7187 38.7686 10.8694 38.7007 11.0354C38.6328 11.2013 38.5987 11.379 38.6002 11.5583C38.6018 11.7375 38.639 11.9147 38.7098 12.0794C38.7805 12.2441 38.8834 12.3931 39.0123 12.5176L42.8301 16.3354C42.9546 16.4643 43.1036 16.5672 43.2683 16.6379C43.433 16.7087 43.6102 16.7459 43.7894 16.7475C43.9687 16.749 44.1464 16.7149 44.3123 16.647C44.4783 16.5791 44.629 16.4789 44.7557 16.3521C44.8825 16.2254 44.9827 16.0746 45.0506 15.9087C45.1185 15.7428 45.1526 15.5651 45.1511 15.3858C45.1495 15.2065 45.1123 15.0294 45.0415 14.8647C44.9708 14.7 44.8679 14.551 44.739 14.4265L40.9212 10.6114V10.6087ZM25.65 16.2004C25.292 16.2004 24.9486 16.3426 24.6954 16.5958C24.4422 16.849 24.3 17.1923 24.3 17.5504V31.0504C24.3 31.4084 24.4422 31.7518 24.6954 32.005C24.9486 32.2582 25.292 32.4004 25.65 32.4004C26.008 32.4004 26.3514 32.2582 26.6046 32.005C26.8578 31.7518 27 31.4084 27 31.0504V17.5504C27 17.1923 26.8578 16.849 26.6046 16.5958C26.3514 16.3426 26.008 16.2004 25.65 16.2004ZM25.65 48.6004C28.132 48.6004 30.5897 48.1115 32.8827 47.1617C35.1758 46.2119 37.2593 44.8197 39.0143 43.0647C40.7693 41.3097 42.1615 39.2262 43.1113 36.9331C44.0611 34.6401 44.55 32.1824 44.55 29.7004C44.55 27.2184 44.0611 24.7607 43.1113 22.4677C42.1615 20.1746 40.7693 18.0911 39.0143 16.3361C37.2593 14.581 35.1758 13.1889 32.8827 12.2391C30.5897 11.2893 28.132 10.8004 25.65 10.8004C20.6374 10.8004 15.8301 12.7916 12.2857 16.3361C8.74124 19.8805 6.75 24.6878 6.75 29.7004C6.75 34.713 8.74124 39.5203 12.2857 43.0647C15.8301 46.6091 20.6374 48.6004 25.65 48.6004ZM25.65 45.9004C23.5226 45.9004 21.416 45.4814 19.4505 44.6672C17.4851 43.8531 15.6992 42.6598 14.1949 41.1555C12.6906 39.6512 11.4973 37.8653 10.6832 35.8999C9.86903 33.9344 9.45 31.8278 9.45 29.7004C9.45 27.573 9.86903 25.4664 10.6832 23.5009C11.4973 21.5354 12.6906 19.7496 14.1949 18.2453C15.6992 16.741 17.4851 15.5477 19.4505 14.7335C21.416 13.9194 23.5226 13.5004 25.65 13.5004C29.9465 13.5004 34.067 15.2072 37.1051 18.2453C40.1432 21.2833 41.85 25.4039 41.85 29.7004C41.85 33.9969 40.1432 38.1174 37.1051 41.1555C34.067 44.1936 29.9465 45.9004 25.65 45.9004Z" fill="white"/>
</svg>
