<svg width="25" height="24" viewBox="0 0 25 24" fill="none" xmlns="http://www.w3.org/2000/svg">
<g clip-path="url(#clip0_2785_902)">
<path d="M22.502 21C22.502 21 24.002 21 24.002 19.5C24.002 18 22.502 13.5 16.502 13.5C10.502 13.5 9.00195 18 9.00195 19.5C9.00195 21 10.502 21 10.502 21H22.502ZM10.535 19.5C10.5239 19.4985 10.5129 19.4965 10.502 19.494C10.5035 19.098 10.7525 17.949 11.642 16.914C12.47 15.9435 13.925 15 16.502 15C19.0775 15 20.5325 15.945 21.362 16.914C22.2515 17.949 22.499 19.0995 22.502 19.494L22.49 19.497C22.483 19.4982 22.476 19.4992 22.469 19.5H10.535ZM16.502 10.5C17.2976 10.5 18.0607 10.1839 18.6233 9.62132C19.1859 9.05871 19.502 8.29565 19.502 7.5C19.502 6.70435 19.1859 5.94129 18.6233 5.37868C18.0607 4.81607 17.2976 4.5 16.502 4.5C15.7063 4.5 14.9432 4.81607 14.3806 5.37868C13.818 5.94129 13.502 6.70435 13.502 7.5C13.502 8.29565 13.818 9.05871 14.3806 9.62132C14.9432 10.1839 15.7063 10.5 16.502 10.5ZM21.002 7.5C21.002 8.09095 20.8856 8.67611 20.6594 9.22208C20.4333 9.76804 20.1018 10.2641 19.6839 10.682C19.2661 11.0998 18.77 11.4313 18.224 11.6575C17.6781 11.8836 17.0929 12 16.502 12C15.911 12 15.3258 11.8836 14.7799 11.6575C14.2339 11.4313 13.7378 11.0998 13.32 10.682C12.9021 10.2641 12.5706 9.76804 12.3445 9.22208C12.1183 8.67611 12.002 8.09095 12.002 7.5C12.002 6.30653 12.4761 5.16193 13.32 4.31802C14.1639 3.47411 15.3085 3 16.502 3C17.6954 3 18.84 3.47411 19.6839 4.31802C20.5278 5.16193 21.002 6.30653 21.002 7.5ZM10.406 13.92C9.80593 13.7311 9.18741 13.6069 8.56095 13.5495C8.20895 13.516 7.85554 13.4995 7.50195 13.5C1.50195 13.5 0.00195312 18 0.00195312 19.5C0.00195312 20.5005 0.501453 21 1.50195 21H7.82595C7.60359 20.5317 7.49269 20.0183 7.50195 19.5C7.50195 17.985 8.06745 16.437 9.13695 15.144C9.50145 14.703 9.92595 14.2905 10.406 13.92ZM7.38195 15C6.49418 16.3339 6.01461 17.8977 6.00195 19.5H1.50195C1.50195 19.11 1.74795 17.955 2.64195 16.914C3.45945 15.96 4.87995 15.03 7.38195 15.0015V15ZM2.25195 8.25C2.25195 7.05653 2.72606 5.91193 3.56997 5.06802C4.41389 4.22411 5.55848 3.75 6.75195 3.75C7.94543 3.75 9.09002 4.22411 9.93393 5.06802C10.7778 5.91193 11.252 7.05653 11.252 8.25C11.252 9.44347 10.7778 10.5881 9.93393 11.432C9.09002 12.2759 7.94543 12.75 6.75195 12.75C5.55848 12.75 4.41389 12.2759 3.56997 11.432C2.72606 10.5881 2.25195 9.44347 2.25195 8.25ZM6.75195 5.25C5.9563 5.25 5.19324 5.56607 4.63063 6.12868C4.06802 6.69129 3.75195 7.45435 3.75195 8.25C3.75195 9.04565 4.06802 9.80871 4.63063 10.3713C5.19324 10.9339 5.9563 11.25 6.75195 11.25C7.5476 11.25 8.31066 10.9339 8.87327 10.3713C9.43588 9.80871 9.75195 9.04565 9.75195 8.25C9.75195 7.45435 9.43588 6.69129 8.87327 6.12868C8.31066 5.56607 7.5476 5.25 6.75195 5.25Z" fill="#549A3C"/>
</g>
<defs>
<clipPath id="clip0_2785_902">
<rect width="24" height="24" fill="white" transform="translate(0.00195312)"/>
</clipPath>
</defs>
</svg>
