<svg width="24" height="24" viewBox="0 0 24 24" fill="none" xmlns="http://www.w3.org/2000/svg">
<path d="M14.5 14C12.016 14 10 16.016 10 18.5C10 20.984 12.016 23 14.5 23C16.984 23 19 20.984 19 18.5C19 16.016 16.984 14 14.5 14ZM14.5 15.8C15.247 15.8 15.85 16.403 15.85 17.15C15.85 17.897 15.247 18.5 14.5 18.5C13.753 18.5 13.15 17.897 13.15 17.15C13.15 16.403 13.753 15.8 14.5 15.8ZM14.5 21.2C13.573 21.2 12.754 20.732 12.268 20.012C12.925 19.634 13.681 19.4 14.5 19.4C15.319 19.4 16.075 19.634 16.732 20.012C16.246 20.732 15.427 21.2 14.5 21.2Z" fill="#549A3C"/>
<path d="M5.03376 10C4.7983 7.88777 5.6988 3 11.017 3C16.3352 3 17.0003 8.00138 17.0003 10" stroke="#549A3C"/>
<path d="M9.19355 20H3V10H19V14.5" stroke="#549A3C" stroke-linecap="round"/>
</svg>
