<svg width="20" height="20" viewBox="0 0 20 20" fill="none" xmlns="http://www.w3.org/2000/svg">
    <path d="M10.586 7.99985L17.969 15.4178C18.1647 15.6122 18.32 15.8433 18.4259 16.0979C18.5319 16.3525 18.5864 16.6256 18.5864 16.9014C18.5864 17.1771 18.5319 17.4502 18.4259 17.7048C18.32 17.9594 18.1647 18.1905 17.969 18.3848C17.5737 18.7781 17.0387 18.9989 16.481 18.9989C15.9234 18.9989 15.3884 18.7781 14.993 18.3848L7.58603 10.9998M3.87903 13.2928L1.29303 10.7068C1.10556 10.5193 1.00024 10.265 1.00024 9.99985C1.00024 9.73469 1.10556 9.48038 1.29303 9.29285L8.87903 1.70685C9.06656 1.51938 9.32087 1.41406 9.58603 1.41406C9.85119 1.41406 10.1055 1.51938 10.293 1.70685L12.879 4.29285C13.0665 4.48038 13.1718 4.73468 13.1718 4.99985C13.1718 5.26501 13.0665 5.51932 12.879 5.70685L5.29303 13.2928C5.1055 13.4803 4.85119 13.5856 4.58603 13.5856C4.32087 13.5856 4.06656 13.4803 3.87903 13.2928V13.2928Z" stroke-linecap="round" stroke-linejoin="round" fill="#000000"/>
</svg>