<svg width="24" height="25" viewBox="0 0 24 25" fill="none" xmlns="http://www.w3.org/2000/svg">
<g clip-path="url(#clip0_4395_8811)">
<path d="M12.279 1.94036C12.0999 1.8686 11.9001 1.8686 11.721 1.94036L2.769 5.52086L6.375 6.96236L15.606 3.27086L12.279 1.94036ZM17.625 4.07936L8.394 7.77086L12 9.21236L21.231 5.52086L17.625 4.07936ZM22.5 6.62936L12.75 10.5294V22.4124L22.5 18.5124V6.62936ZM11.25 22.4139V10.5279L1.5 6.62936V18.5139L11.25 22.4139ZM11.1645 0.546862C11.7008 0.332361 12.2992 0.332361 12.8355 0.546862L23.529 4.82486C23.668 4.88058 23.7872 4.97665 23.8711 5.1007C23.9551 5.22474 24 5.37108 24 5.52086V18.5139C23.9998 18.8136 23.9098 19.1064 23.7417 19.3545C23.5735 19.6026 23.3348 19.7947 23.0565 19.9059L12.279 24.2169C12.0999 24.2886 11.9001 24.2886 11.721 24.2169L0.945 19.9059C0.666377 19.7949 0.427414 19.603 0.258963 19.3548C0.0905126 19.1067 0.000309494 18.8138 0 18.5139L0 5.52086C3.48599e-05 5.37108 0.0449156 5.22474 0.128861 5.1007C0.212805 4.97665 0.331969 4.88058 0.471 4.82486L11.1645 0.546862Z" fill="#549A3C"/>
</g>
<defs>
<clipPath id="clip0_4395_8811">
<rect width="24" height="24" fill="white" transform="translate(0 0.270874)"/>
</clipPath>
</defs>
</svg>
