<svg width="16" height="16" viewBox="0 0 16 16" fill="none" xmlns="http://www.w3.org/2000/svg">
<path d="M0.90326 1.56756C0.84515 1.50945 0.799055 1.44046 0.767606 1.36454C0.736157 1.28861 0.719971 1.20724 0.719971 1.12506C0.719971 1.04288 0.736157 0.961502 0.767606 0.885578C0.799055 0.809654 0.84515 0.740667 0.90326 0.682557C0.96137 0.624447 1.03036 0.578352 1.10628 0.546903C1.18221 0.515454 1.26358 0.499268 1.34576 0.499268C1.42794 0.499268 1.50932 0.515454 1.58524 0.546903C1.66116 0.578352 1.73015 0.624447 1.78826 0.682557L8.22076 7.11631L14.6533 0.682557C14.7114 0.624447 14.7804 0.578352 14.8563 0.546903C14.9322 0.515454 15.0136 0.499268 15.0958 0.499268C15.1779 0.499268 15.2593 0.515454 15.3352 0.546903C15.4112 0.578352 15.4802 0.624447 15.5383 0.682557C15.5964 0.740667 15.6425 0.809654 15.6739 0.885578C15.7054 0.961502 15.7215 1.04288 15.7215 1.12506C15.7215 1.20724 15.7054 1.28861 15.6739 1.36454C15.6425 1.44046 15.5964 1.50945 15.5383 1.56756L9.10451 8.00006L15.5383 14.4326C15.5964 14.4907 15.6425 14.5597 15.6739 14.6356C15.7054 14.7115 15.7215 14.7929 15.7215 14.8751C15.7215 14.9572 15.7054 15.0386 15.6739 15.1145C15.6425 15.1905 15.5964 15.2594 15.5383 15.3176C15.4802 15.3757 15.4112 15.4218 15.3352 15.4532C15.2593 15.4847 15.1779 15.5008 15.0958 15.5008C15.0136 15.5008 14.9322 15.4847 14.8563 15.4532C14.7804 15.4218 14.7114 15.3757 14.6533 15.3176L8.22076 8.88381L1.78826 15.3176C1.73015 15.3757 1.66116 15.4218 1.58524 15.4532C1.50932 15.4847 1.42794 15.5008 1.34576 15.5008C1.26358 15.5008 1.18221 15.4847 1.10628 15.4532C1.03036 15.4218 0.96137 15.3757 0.90326 15.3176C0.84515 15.2594 0.799055 15.1905 0.767606 15.1145C0.736157 15.0386 0.719971 14.9572 0.719971 14.8751C0.719971 14.7929 0.736157 14.7115 0.767606 14.6356C0.799055 14.5597 0.84515 14.4907 0.90326 14.4326L7.33701 8.00006L0.90326 1.56756Z" fill="#549A3C"/>
</svg>
