<svg width="150" height="150" viewBox="0 0 225 225" fill="none" xmlns="http://www.w3.org/2000/svg">
    <path fill-rule="evenodd" clip-rule="evenodd" d="M208 112.5C208 165.243 165.243 208 112.5 208C59.7568 208 17 165.243 17 112.5C17 59.7568 59.7568 17 112.5 17C165.243 17 208 59.7568 208 112.5ZM225 112.5C225 174.632 174.632 225 112.5 225C50.368 225 0 174.632 0 112.5C0 50.368 50.368 0 112.5 0C174.632 0 225 50.368 225 112.5ZM104 89C104 93.4183 107.582 97 112 97C116.418 97 120 93.4183 120 89V49C120 44.5817 116.418 41 112 41C107.582 41 104 44.5817 104 49V89Z" fill="#549A3C"/>
</svg>