<svg>
    <symbol id="edit" viewBox="0 0 21 21" xmlns="http://www.w3.org/2000/svg">
        <path d="M16.6667 19H2.00001V4.33333H10.8133L12.1467 3H2.00001C1.64638 3 1.30724 3.14048 1.0572 3.39052C0.807147 3.64057 0.666672 3.97971 0.666672 4.33333V19C0.666672 19.3536 0.807147 19.6928 1.0572 19.9428C1.30724 20.1929 1.64638 20.3333 2.00001 20.3333H16.6667C17.0203 20.3333 17.3594 20.1929 17.6095 19.9428C17.8595 19.6928 18 19.3536 18 19V9L16.6667 10.3333V19Z"/>
		<path d="M20.6681 2.56208L18.4214 0.315412C18.3217 0.215432 18.2033 0.136108 18.0728 0.081984C17.9424 0.02786 17.8026 0 17.6614 0C17.5202 0 17.3804 0.02786 17.25 0.081984C17.1196 0.136108 17.0011 0.215432 16.9014 0.315412L7.76142 9.50875L7.02142 12.7154C6.98989 12.8709 6.99321 13.0313 7.03112 13.1854C7.06904 13.3394 7.14061 13.483 7.2407 13.6061C7.34079 13.7291 7.4669 13.8284 7.60996 13.8969C7.75302 13.9654 7.90948 14.0013 8.06808 14.0021C8.15006 14.0111 8.23278 14.0111 8.31475 14.0021L11.5481 13.2887L20.6681 4.08208C20.7681 3.98237 20.8474 3.86392 20.9015 3.7335C20.9556 3.60309 20.9835 3.46328 20.9835 3.32208C20.9835 3.18088 20.9556 3.04107 20.9015 2.91065C20.8474 2.78024 20.7681 2.66179 20.6681 2.56208ZM10.8548 12.0554L8.41475 12.5954L8.98142 10.1754L15.8614 3.24875L17.7414 5.12875L10.8548 12.0554ZM18.4948 4.37541L16.6148 2.49541L17.6481 1.44208L19.5414 3.33541L18.4948 4.37541Z"/>
	</symbol>
    <symbol id="delete" viewBox="0 0 19 23" xmlns="http://www.w3.org/2000/svg">
        <path d="M13.7144 12.7154C14.9647 12.7154 16.1638 13.2121 17.0479 14.0962C17.932 14.9803 18.4287 16.1794 18.4287 17.4297C18.4287 18.68 17.932 19.8791 17.0479 20.7632C16.1638 21.6473 14.9647 22.144 13.7144 22.144C12.4641 22.144 11.265 21.6473 10.3809 20.7632C9.49682 19.8791 9.00014 18.68 9.00014 17.4297C9.00014 16.1794 9.49682 14.9803 10.3809 14.0962C11.265 13.2121 12.4641 12.7154 13.7144 12.7154ZM9.00014 0.929688C9.82299 0.929614 10.6145 1.24512 11.2117 1.81121C11.8089 2.3773 12.1663 3.15086 12.2101 3.97254L12.2144 4.14397H16.9287C17.0916 4.14402 17.2484 4.2059 17.3674 4.31709C17.4864 4.42829 17.5588 4.58051 17.5699 4.74301C17.581 4.90551 17.53 5.06617 17.4272 5.19251C17.3244 5.31886 17.1775 5.40149 17.0161 5.42369L16.9287 5.42969H16.021L15.4776 12.1428C15.0664 12.0059 14.6407 11.9175 14.209 11.8797L14.7319 5.42969H3.26843L4.30643 18.2285C4.34562 18.7115 4.56517 19.162 4.92141 19.4904C5.27764 19.8189 5.74446 20.0012 6.229 20.0011L8.77128 20.002C9.0164 20.4722 9.32724 20.9051 9.69443 21.2877L6.229 21.2868C5.42144 21.2869 4.64344 20.983 4.04977 20.4355C3.4561 19.888 3.09025 19.1372 3.025 18.3323L1.97843 5.42969H1.07157C0.916222 5.42968 0.766132 5.37342 0.649056 5.27132C0.53198 5.16921 0.455838 5.02816 0.434711 4.87426L0.428711 4.78683C0.428717 4.63148 0.484976 4.48139 0.587083 4.36432C0.689189 4.24724 0.830236 4.1711 0.984139 4.14997L1.07157 4.14397H5.78585C5.78585 3.29149 6.1245 2.47393 6.7273 1.87113C7.33009 1.26833 8.14766 0.929688 9.00014 0.929688ZM11.5921 15.3074C11.5118 15.3878 11.4667 15.4968 11.4667 15.6104C11.4667 15.724 11.5118 15.833 11.5921 15.9134L13.1084 17.4305L11.5939 18.9443C11.5134 19.0246 11.4681 19.1337 11.468 19.2474C11.468 19.3611 11.5131 19.4702 11.5934 19.5507C11.6738 19.6312 11.7828 19.6764 11.8966 19.6765C12.0103 19.6766 12.1194 19.6315 12.1999 19.5511L13.7144 18.0365L15.2316 19.5528C15.2711 19.5938 15.3184 19.6264 15.3707 19.6489C15.423 19.6713 15.4792 19.6832 15.5361 19.6837C15.593 19.6841 15.6495 19.6733 15.7021 19.6518C15.7548 19.6302 15.8026 19.5984 15.8429 19.5581C15.8831 19.5179 15.9149 19.4701 15.9365 19.4174C15.958 19.3647 15.9689 19.3083 15.9684 19.2514C15.9679 19.1945 15.9561 19.1382 15.9336 19.0859C15.9111 19.0337 15.8785 18.9864 15.8376 18.9468L14.3213 17.4297L15.8393 15.9125C15.9174 15.8317 15.9605 15.7235 15.9596 15.6111C15.9586 15.4987 15.9135 15.3912 15.8341 15.3118C15.7546 15.2323 15.6471 15.1872 15.5347 15.1863C15.4224 15.1853 15.3141 15.2285 15.2333 15.3065L13.7153 16.8237L12.1981 15.3065C12.1178 15.2262 12.0088 15.1811 11.8951 15.1811C11.7815 15.1811 11.6725 15.2262 11.5921 15.3065V15.3074ZM9.00014 2.2154C8.51146 2.21534 8.04098 2.4008 7.68378 2.73429C7.32658 3.06778 7.1093 3.52444 7.07585 4.01197L7.07157 4.14397H10.9287L10.9244 4.01197C10.891 3.52444 10.6737 3.06778 10.3165 2.73429C9.9593 2.4008 9.48882 2.21534 9.00014 2.2154Z"/>
    </symbol>
</svg>