<svg width="29" height="28" viewBox="0 0 29 28" fill="none" xmlns="http://www.w3.org/2000/svg">
<path d="M4.68845 19.9996C4.8701 20.1819 5.00929 20.4021 5.0961 20.6444C5.18291 20.8866 5.21522 21.1451 5.1907 21.4013C5.06771 22.5871 4.83454 23.7588 4.4942 24.9013C6.93545 24.3361 8.42645 23.6816 9.1037 23.3386C9.48783 23.144 9.93021 23.0979 10.3462 23.2091C11.5387 23.527 12.7678 23.687 14.002 23.6851C20.995 23.6851 26.252 18.7728 26.252 13.1851C26.252 7.59906 20.995 2.68506 14.002 2.68506C7.00895 2.68506 1.75195 7.59906 1.75195 13.1851C1.75195 15.7541 2.8317 18.1376 4.68845 19.9996ZM3.8257 26.8333C3.41107 26.9155 2.9951 26.9908 2.57795 27.0591C2.22795 27.1151 1.96195 26.7511 2.1002 26.4256C2.25559 26.0591 2.39801 25.6873 2.5272 25.3108L2.53245 25.2933C2.96645 24.0333 3.31995 22.5843 3.44945 21.2351C1.3022 19.0826 0.00195312 16.2651 0.00195312 13.1851C0.00195312 6.41956 6.27045 0.935059 14.002 0.935059C21.7335 0.935059 28.002 6.41956 28.002 13.1851C28.002 19.9506 21.7335 25.4351 14.002 25.4351C12.6153 25.4369 11.2345 25.2569 9.8947 24.8996C8.9847 25.3598 7.02645 26.1981 3.8257 26.8333Z" fill="#DD2323"/>
</svg>
