<svg width="25" height="24" viewBox="0 0 25 24" fill="none" xmlns="http://www.w3.org/2000/svg">
<path d="M6.29688 3.75C6.29687 3.55109 6.37589 3.36032 6.51655 3.21967C6.6572 3.07902 6.84796 3 7.04688 3H8.54688C8.74579 3 8.93655 3.07902 9.0772 3.21967C9.21786 3.36032 9.29688 3.55109 9.29688 3.75V5.25C9.29688 5.44891 9.21786 5.63968 9.0772 5.78033C8.93655 5.92098 8.74579 6 8.54688 6H7.04688C6.84796 6 6.6572 5.92098 6.51655 5.78033C6.37589 5.63968 6.29687 5.44891 6.29688 5.25V3.75ZM10.7969 3.75C10.7969 3.55109 10.8759 3.36032 11.0165 3.21967C11.1572 3.07902 11.348 3 11.5469 3H13.0469C13.2458 3 13.4366 3.07902 13.5772 3.21967C13.7179 3.36032 13.7969 3.55109 13.7969 3.75V5.25C13.7969 5.44891 13.7179 5.63968 13.5772 5.78033C13.4366 5.92098 13.2458 6 13.0469 6H11.5469C11.348 6 11.1572 5.92098 11.0165 5.78033C10.8759 5.63968 10.7969 5.44891 10.7969 5.25V3.75ZM16.0469 3C15.848 3 15.6572 3.07902 15.5165 3.21967C15.3759 3.36032 15.2969 3.55109 15.2969 3.75V5.25C15.2969 5.44891 15.3759 5.63968 15.5165 5.78033C15.6572 5.92098 15.848 6 16.0469 6H17.5469C17.7458 6 17.9366 5.92098 18.0772 5.78033C18.2179 5.63968 18.2969 5.44891 18.2969 5.25V3.75C18.2969 3.55109 18.2179 3.36032 18.0772 3.21967C17.9366 3.07902 17.7458 3 17.5469 3H16.0469ZM6.29688 8.25C6.29687 8.05109 6.37589 7.86032 6.51655 7.71967C6.6572 7.57902 6.84796 7.5 7.04688 7.5H8.54688C8.74579 7.5 8.93655 7.57902 9.0772 7.71967C9.21786 7.86032 9.29688 8.05109 9.29688 8.25V9.75C9.29688 9.94891 9.21786 10.1397 9.0772 10.2803C8.93655 10.421 8.74579 10.5 8.54688 10.5H7.04688C6.84796 10.5 6.6572 10.421 6.51655 10.2803C6.37589 10.1397 6.29687 9.94891 6.29688 9.75V8.25ZM11.5469 7.5C11.348 7.5 11.1572 7.57902 11.0165 7.71967C10.8759 7.86032 10.7969 8.05109 10.7969 8.25V9.75C10.7969 9.94891 10.8759 10.1397 11.0165 10.2803C11.1572 10.421 11.348 10.5 11.5469 10.5H13.0469C13.2458 10.5 13.4366 10.421 13.5772 10.2803C13.7179 10.1397 13.7969 9.94891 13.7969 9.75V8.25C13.7969 8.05109 13.7179 7.86032 13.5772 7.71967C13.4366 7.57902 13.2458 7.5 13.0469 7.5H11.5469ZM15.2969 8.25C15.2969 8.05109 15.3759 7.86032 15.5165 7.71967C15.6572 7.57902 15.848 7.5 16.0469 7.5H17.5469C17.7458 7.5 17.9366 7.57902 18.0772 7.71967C18.2179 7.86032 18.2969 8.05109 18.2969 8.25V9.75C18.2969 9.94891 18.2179 10.1397 18.0772 10.2803C17.9366 10.421 17.7458 10.5 17.5469 10.5H16.0469C15.848 10.5 15.6572 10.421 15.5165 10.2803C15.3759 10.1397 15.2969 9.94891 15.2969 9.75V8.25ZM7.04688 12C6.84796 12 6.6572 12.079 6.51655 12.2197C6.37589 12.3603 6.29687 12.5511 6.29688 12.75V14.25C6.29687 14.4489 6.37589 14.6397 6.51655 14.7803C6.6572 14.921 6.84796 15 7.04688 15H8.54688C8.74579 15 8.93655 14.921 9.0772 14.7803C9.21786 14.6397 9.29688 14.4489 9.29688 14.25V12.75C9.29688 12.5511 9.21786 12.3603 9.0772 12.2197C8.93655 12.079 8.74579 12 8.54688 12H7.04688ZM10.7969 12.75C10.7969 12.5511 10.8759 12.3603 11.0165 12.2197C11.1572 12.079 11.348 12 11.5469 12H13.0469C13.2458 12 13.4366 12.079 13.5772 12.2197C13.7179 12.3603 13.7969 12.5511 13.7969 12.75V14.25C13.7969 14.4489 13.7179 14.6397 13.5772 14.7803C13.4366 14.921 13.2458 15 13.0469 15H11.5469C11.348 15 11.1572 14.921 11.0165 14.7803C10.8759 14.6397 10.7969 14.4489 10.7969 14.25V12.75ZM16.0469 12C15.848 12 15.6572 12.079 15.5165 12.2197C15.3759 12.3603 15.2969 12.5511 15.2969 12.75V14.25C15.2969 14.4489 15.3759 14.6397 15.5165 14.7803C15.6572 14.921 15.848 15 16.0469 15H17.5469C17.7458 15 17.9366 14.921 18.0772 14.7803C18.2179 14.6397 18.2969 14.4489 18.2969 14.25V12.75C18.2969 12.5511 18.2179 12.3603 18.0772 12.2197C17.9366 12.079 17.7458 12 17.5469 12H16.0469Z" fill="#549A3C"/>
<path d="M3.29688 1.5C3.29688 1.10218 3.45491 0.720644 3.73621 0.43934C4.01752 0.158035 4.39905 0 4.79688 0L19.7969 0C20.1947 0 20.5762 0.158035 20.8575 0.43934C21.1388 0.720644 21.2969 1.10218 21.2969 1.5V22.5C21.2969 22.8978 21.1388 23.2794 20.8575 23.5607C20.5762 23.842 20.1947 24 19.7969 24H4.79688C4.39905 24 4.01752 23.842 3.73621 23.5607C3.45491 23.2794 3.29688 22.8978 3.29688 22.5V1.5ZM19.7969 1.5H4.79688V22.5H9.29688V18.75C9.29688 18.5511 9.37589 18.3603 9.51655 18.2197C9.6572 18.079 9.84796 18 10.0469 18H14.5469C14.7458 18 14.9366 18.079 15.0772 18.2197C15.2179 18.3603 15.2969 18.5511 15.2969 18.75V22.5H19.7969V1.5Z" fill="#549A3C"/>
</svg>
