<svg width="13" height="13" viewBox="0 0 13 13" fill="none" xmlns="http://www.w3.org/2000/svg">
<path fill-rule="evenodd" clip-rule="evenodd" d="M6.95312 0.270996C7.08573 0.270996 7.21291 0.323675 7.30668 0.417443C7.40045 0.511211 7.45312 0.638388 7.45312 0.770996V5.771H12.4531C12.5857 5.771 12.7129 5.82367 12.8067 5.91744C12.9004 6.01121 12.9531 6.13839 12.9531 6.271C12.9531 6.4036 12.9004 6.53078 12.8067 6.62455C12.7129 6.71832 12.5857 6.771 12.4531 6.771H7.45312V11.771C7.45312 11.9036 7.40045 12.0308 7.30668 12.1245C7.21291 12.2183 7.08573 12.271 6.95312 12.271C6.82052 12.271 6.69334 12.2183 6.59957 12.1245C6.5058 12.0308 6.45312 11.9036 6.45312 11.771V6.771H1.45312C1.32052 6.771 1.19334 6.71832 1.09957 6.62455C1.0058 6.53078 0.953125 6.4036 0.953125 6.271C0.953125 6.13839 1.0058 6.01121 1.09957 5.91744C1.19334 5.82367 1.32052 5.771 1.45312 5.771H6.45312V0.770996C6.45312 0.638388 6.5058 0.511211 6.59957 0.417443C6.69334 0.323675 6.82052 0.270996 6.95312 0.270996Z" fill="#549A3C"/>
</svg>
