<svg width="24" height="24" viewBox="0 0 24 24" fill="none" xmlns="http://www.w3.org/2000/svg">
<path d="M16.9267 16.9669C16.7789 16.871 16.5992 16.8376 16.4268 16.8738C16.2544 16.91 16.1034 17.013 16.0067 17.1602C15.0667 18.6002 13.34 20.3669 11.8 20.9602C10.26 21.5535 9.05334 21.3402 8.57334 20.9602C8.36667 20.7802 7.82667 20.2935 8.28667 18.6335C8.59334 17.5269 10.5 12.3135 10.9533 11.0469L9.50001 11.2335C9.04001 12.4735 7.30667 17.1269 6.99334 18.2869C6.54001 19.9469 6.76667 21.1535 7.72001 21.9935C8.38612 22.4609 9.18688 22.6974 10 22.6669C10.789 22.6555 11.569 22.4972 12.3 22.2002C14.16 21.4735 16.1133 19.4535 17.14 17.8869C17.1866 17.8125 17.218 17.7297 17.2324 17.6431C17.2469 17.5566 17.2442 17.4681 17.2243 17.3826C17.2045 17.2971 17.168 17.2164 17.1169 17.1451C17.0659 17.0737 17.0012 17.0132 16.9267 16.9669Z" fill="#828282"/>
<path d="M12.8666 7.33399C13.46 7.33399 14.04 7.15804 14.5333 6.82839C15.0267 6.49875 15.4112 6.03021 15.6383 5.48204C15.8653 4.93386 15.9247 4.33066 15.809 3.74871C15.6932 3.16677 15.4075 2.63222 14.988 2.21267C14.5684 1.79311 14.0339 1.50739 13.4519 1.39163C12.87 1.27587 12.2668 1.33528 11.7186 1.56235C11.1704 1.78941 10.7019 2.17393 10.3722 2.66727C10.0426 3.16062 9.86664 3.74064 9.86664 4.33399C9.86664 5.12963 10.1827 5.8927 10.7453 6.45531C11.3079 7.01791 12.071 7.33399 12.8666 7.33399ZM12.8666 2.66732C13.1963 2.66732 13.5185 2.76507 13.7926 2.9482C14.0667 3.13134 14.2803 3.39164 14.4064 3.69618C14.5326 4.00072 14.5656 4.33583 14.5013 4.65914C14.437 4.98244 14.2782 5.27941 14.0451 5.5125C13.8121 5.74558 13.5151 5.90432 13.1918 5.96863C12.8685 6.03294 12.5334 5.99993 12.2288 5.87378C11.9243 5.74764 11.664 5.53402 11.4809 5.25994C11.2977 4.98585 11.2 4.66362 11.2 4.33399C11.2 3.89196 11.3756 3.46803 11.6881 3.15547C12.0007 2.84291 12.4246 2.66732 12.8666 2.66732Z" fill="#828282"/>
<path d="M7.87331 10.0003C7.91331 10.0003 12.0533 9.45366 13.0266 9.33366C13.46 9.267 13.7866 9.33366 13.8933 9.43366C14 9.53366 14.0333 9.967 13.8466 10.5537C13.44 11.7937 11.3866 17.887 10.7866 19.6937C11.0799 19.6335 11.3676 19.5488 11.6466 19.4403C11.9135 19.3299 12.1701 19.1961 12.4133 19.0403C13.2333 16.667 14.7666 12.067 15.1133 11.0137C15.46 9.96033 15.3733 9.16033 14.9133 8.61366C14.6509 8.3476 14.3224 8.15613 13.9616 8.05889C13.6008 7.96165 13.2206 7.96215 12.86 8.06033C11.9066 8.16033 7.87998 8.687 7.70665 8.727C7.52983 8.74998 7.3694 8.84226 7.26062 8.98354C7.15185 9.12482 7.10366 9.30352 7.12665 9.48033C7.14963 9.65714 7.24191 9.81758 7.38319 9.92635C7.52447 10.0351 7.70317 10.0833 7.87998 10.0603L7.87331 10.0003Z" fill="#828282"/>
</svg>
