<svg width="16" height="16" viewBox="0 0 16 16" xmlns="http://www.w3.org/2000/svg">
<path d="M12.95 3C12.8352 2.43486 12.5286 1.92677 12.0821 1.56182C11.6356 1.19686 11.0767 0.997498 10.5 0.997498C9.92332 0.997498 9.36438 1.19686 8.91787 1.56182C8.47136 1.92677 8.16476 2.43486 8.05 3H0.5C0.367392 3 0.240215 3.05268 0.146447 3.14645C0.0526785 3.24022 0 3.3674 0 3.5C0 3.63261 0.0526785 3.75979 0.146447 3.85356C0.240215 3.94733 0.367392 4 0.5 4H8.05C8.16476 4.56515 8.47136 5.07324 8.91787 5.43819C9.36438 5.80314 9.92332 6.00251 10.5 6.00251C11.0767 6.00251 11.6356 5.80314 12.0821 5.43819C12.5286 5.07324 12.8352 4.56515 12.95 4H15.5C15.6326 4 15.7598 3.94733 15.8536 3.85356C15.9473 3.75979 16 3.63261 16 3.5C16 3.3674 15.9473 3.24022 15.8536 3.14645C15.7598 3.05268 15.6326 3 15.5 3H12.95ZM10.5 5C10.303 5 10.108 4.96121 9.92597 4.88582C9.74399 4.81044 9.57863 4.69995 9.43934 4.56066C9.30005 4.42138 9.18956 4.25602 9.11418 4.07403C9.0388 3.89204 9 3.69699 9 3.5C9 3.30302 9.0388 3.10797 9.11418 2.92598C9.18956 2.74399 9.30005 2.57863 9.43934 2.43934C9.57863 2.30006 9.74399 2.18957 9.92597 2.11418C10.108 2.0388 10.303 2 10.5 2C10.8978 2 11.2794 2.15804 11.5607 2.43934C11.842 2.72065 12 3.10218 12 3.5C12 3.89783 11.842 4.27936 11.5607 4.56066C11.2794 4.84197 10.8978 5 10.5 5ZM7.95 12C7.83524 11.4349 7.52864 10.9268 7.08213 10.5618C6.63562 10.1969 6.07668 9.9975 5.5 9.9975C4.92332 9.9975 4.36438 10.1969 3.91787 10.5618C3.47136 10.9268 3.16476 11.4349 3.05 12H0.5C0.367392 12 0.240215 12.0527 0.146447 12.1465C0.0526785 12.2402 0 12.3674 0 12.5C0 12.6326 0.0526785 12.7598 0.146447 12.8536C0.240215 12.9473 0.367392 13 0.5 13H3.05C3.16476 13.5651 3.47136 14.0732 3.91787 14.4382C4.36438 14.8031 4.92332 15.0025 5.5 15.0025C6.07668 15.0025 6.63562 14.8031 7.08213 14.4382C7.52864 14.0732 7.83524 13.5651 7.95 13H15.5C15.6326 13 15.7598 12.9473 15.8536 12.8536C15.9473 12.7598 16 12.6326 16 12.5C16 12.3674 15.9473 12.2402 15.8536 12.1465C15.7598 12.0527 15.6326 12 15.5 12H7.95ZM5.5 14C5.10218 14 4.72064 13.842 4.43934 13.5607C4.15804 13.2794 4 12.8978 4 12.5C4 12.1022 4.15804 11.7206 4.43934 11.4393C4.72064 11.158 5.10218 11 5.5 11C5.89782 11 6.27936 11.158 6.56066 11.4393C6.84196 11.7206 7 12.1022 7 12.5C7 12.8978 6.84196 13.2794 6.56066 13.5607C6.27936 13.842 5.89782 14 5.5 14Z"/>
</svg>
