<svg>
    <symbol id="edit" viewBox="0 0 21 21" xmlns="http://www.w3.org/2000/svg">
        <path d="M16.6667 19H2.00001V4.33333H10.8133L12.1467 3H2.00001C1.64638 3 1.30724 3.14048 1.0572 3.39052C0.807147 3.64057 0.666672 3.97971 0.666672 4.33333V19C0.666672 19.3536 0.807147 19.6928 1.0572 19.9428C1.30724 20.1929 1.64638 20.3333 2.00001 20.3333H16.6667C17.0203 20.3333 17.3594 20.1929 17.6095 19.9428C17.8595 19.6928 18 19.3536 18 19V9L16.6667 10.3333V19Z" fill="#549A3C"/>
		<path d="M20.6681 2.56208L18.4214 0.315412C18.3217 0.215432 18.2033 0.136108 18.0728 0.081984C17.9424 0.02786 17.8026 0 17.6614 0C17.5202 0 17.3804 0.02786 17.25 0.081984C17.1196 0.136108 17.0011 0.215432 16.9014 0.315412L7.76142 9.50875L7.02142 12.7154C6.98989 12.8709 6.99321 13.0313 7.03112 13.1854C7.06904 13.3394 7.14061 13.483 7.2407 13.6061C7.34079 13.7291 7.4669 13.8284 7.60996 13.8969C7.75302 13.9654 7.90948 14.0013 8.06808 14.0021C8.15006 14.0111 8.23278 14.0111 8.31475 14.0021L11.5481 13.2887L20.6681 4.08208C20.7681 3.98237 20.8474 3.86392 20.9015 3.7335C20.9556 3.60309 20.9835 3.46328 20.9835 3.32208C20.9835 3.18088 20.9556 3.04107 20.9015 2.91065C20.8474 2.78024 20.7681 2.66179 20.6681 2.56208ZM10.8548 12.0554L8.41475 12.5954L8.98142 10.1754L15.8614 3.24875L17.7414 5.12875L10.8548 12.0554ZM18.4948 4.37541L16.6148 2.49541L17.6481 1.44208L19.5414 3.33541L18.4948 4.37541Z" fill="#549A3C"/>
	</symbol>
</svg>