<svg width="54" height="54" viewBox="0 0 54 54" fill="none" xmlns="http://www.w3.org/2000/svg">
<path fill-rule="evenodd" clip-rule="evenodd" d="M54 27C54 41.9117 41.9117 54 27 54C12.0883 54 0 41.9117 0 27C0 12.0883 12.0883 0 27 0C41.9117 0 54 12.0883 54 27ZM27.5004 27C31.6426 27 35.0004 23.6421 35.0004 19.5C35.0004 15.3579 31.6426 12 27.5004 12C23.3583 12 20.0004 15.3579 20.0004 19.5C20.0004 23.6421 23.3583 27 27.5004 27ZM12 36.375C12 31.3875 21.9937 28.875 27 28.875C32.0063 28.875 42 31.3875 42 36.375V40.125C42 41.1562 41.1563 42 40.125 42H13.875C12.8438 42 12 41.1562 12 40.125V36.375Z" fill="#DD2323"/>
</svg>
