<svg width="17" height="16" viewBox="0 0 17 16" fill="none" xmlns="http://www.w3.org/2000/svg">
<path d="M9.70187 1.05C9.28887 -0.35 7.30487 -0.35 6.89187 1.05L6.79187 1.39C6.73017 1.59959 6.62233 1.79272 6.47627 1.95521C6.33021 2.11771 6.14963 2.24544 5.94777 2.32906C5.74591 2.41268 5.5279 2.45006 5.30972 2.43846C5.09154 2.42685 4.87872 2.36656 4.68687 2.262L4.37687 2.092C3.09387 1.394 1.69087 2.797 2.38987 4.079L2.55888 4.39C3.00488 5.21 2.58187 6.231 1.68687 6.495L1.34687 6.595C-0.053125 7.008 -0.053125 8.992 1.34687 9.405L1.68687 9.505C1.89647 9.56671 2.08959 9.67455 2.25209 9.82061C2.41458 9.96667 2.54232 10.1472 2.62594 10.3491C2.70956 10.551 2.74694 10.769 2.73533 10.9872C2.72373 11.2053 2.66343 11.4182 2.55888 11.61L2.38888 11.92C1.69088 13.203 3.09387 14.606 4.37587 13.907L4.68687 13.738C4.87872 13.6334 5.09154 13.5731 5.30972 13.5615C5.5279 13.5499 5.74591 13.5873 5.94777 13.6709C6.14963 13.7546 6.33021 13.8823 6.47627 14.0448C6.62233 14.2073 6.73017 14.4004 6.79187 14.61L6.89187 14.95C7.30487 16.35 9.28887 16.35 9.70187 14.95L9.80188 14.61C9.86358 14.4004 9.97142 14.2073 10.1175 14.0448C10.2635 13.8823 10.4441 13.7546 10.646 13.6709C10.8478 13.5873 11.0658 13.5499 11.284 13.5615C11.5022 13.5731 11.715 13.6334 11.9069 13.738L12.2169 13.908C13.4999 14.606 14.9029 13.203 14.2039 11.921L14.0349 11.61C13.9303 11.4182 13.87 11.2053 13.8584 10.9872C13.8468 10.769 13.8842 10.551 13.9678 10.3491C14.0514 10.1472 14.1792 9.96667 14.3417 9.82061C14.5042 9.67455 14.6973 9.56671 14.9069 9.505L15.2469 9.405C16.6469 8.992 16.6469 7.008 15.2469 6.595L14.9069 6.495C14.6973 6.43329 14.5042 6.32545 14.3417 6.17939C14.1792 6.03333 14.0514 5.85275 13.9678 5.6509C13.8842 5.44904 13.8468 5.23103 13.8584 5.01285C13.87 4.79466 13.9303 4.58185 14.0349 4.39L14.2049 4.08C14.9029 2.797 13.4999 1.394 12.2179 2.093L11.9069 2.262C11.715 2.36656 11.5022 2.42685 11.284 2.43846C11.0658 2.45006 10.8478 2.41268 10.646 2.32906C10.4441 2.24544 10.2635 2.11771 10.1175 1.95521C9.97142 1.79272 9.86358 1.59959 9.80188 1.39L9.70187 1.05ZM8.29688 10.93C7.51979 10.93 6.77453 10.6213 6.22505 10.0718C5.67557 9.52234 5.36688 8.77708 5.36688 8C5.36688 7.22292 5.67557 6.47766 6.22505 5.92818C6.77453 5.3787 7.51979 5.07 8.29688 5.07C9.07369 5.07 9.8187 5.37859 10.368 5.92788C10.9173 6.47718 11.2259 7.22218 11.2259 7.999C11.2259 8.77582 10.9173 9.52082 10.368 10.0701C9.8187 10.6194 9.07369 10.928 8.29688 10.928V10.93Z" fill="#F8FBF7"/>
</svg>
