<svg width="21" height="20" viewBox="0 0 21 20" fill="none" xmlns="http://www.w3.org/2000/svg">
<g clip-path="url(#clip0_2784_14248)">
<path d="M15.7409 0.182152C15.7989 0.123948 15.8679 0.0777698 15.9438 0.0462617C16.0197 0.0147537 16.1011 -0.00146484 16.1834 -0.00146484C16.2656 -0.00146484 16.347 0.0147537 16.4229 0.0462617C16.4988 0.0777698 16.5678 0.123948 16.6259 0.182152L20.3759 3.93215C20.4341 3.99021 20.4802 4.05918 20.5117 4.13511C20.5432 4.21104 20.5595 4.29244 20.5595 4.37465C20.5595 4.45686 20.5432 4.53826 20.5117 4.61419C20.4802 4.69013 20.4341 4.7591 20.3759 4.81715L7.87585 17.3172C7.81587 17.3767 7.74443 17.4235 7.66585 17.4547L1.41585 19.9547C1.30227 20.0001 1.17785 20.0112 1.058 19.9867C0.938155 19.9621 0.82816 19.9029 0.741652 19.8163C0.655144 19.7298 0.595927 19.6198 0.571343 19.5C0.546759 19.3802 0.557888 19.2557 0.603351 19.1422L3.10335 12.8922C3.13451 12.8136 3.18129 12.7421 3.24085 12.6822L15.7409 0.182152ZM14.5671 3.12465L17.4333 5.9909L19.0496 4.37465L16.1834 1.5084L14.5671 3.12465ZM16.5496 6.87465L13.6834 4.0084L5.55835 12.1334V12.4997H6.18335C6.34911 12.4997 6.50808 12.5655 6.62529 12.6827C6.7425 12.7999 6.80835 12.9589 6.80835 13.1247V13.7497H7.43335C7.59911 13.7497 7.75808 13.8155 7.87529 13.9327C7.9925 14.0499 8.05835 14.2089 8.05835 14.3747V14.9997H8.4246L16.5496 6.87465ZM4.34835 13.3434L4.21585 13.4759L2.30585 18.2522L7.0821 16.3422L7.2146 16.2097C7.09538 16.1651 6.99259 16.0852 6.91999 15.9807C6.8474 15.8761 6.80845 15.7519 6.80835 15.6247V14.9997H6.18335C6.01759 14.9997 5.85862 14.9338 5.74141 14.8166C5.6242 14.6994 5.55835 14.5404 5.55835 14.3747V13.7497H4.93335C4.80608 13.7496 4.68186 13.7106 4.57732 13.638C4.47278 13.5654 4.3929 13.4626 4.34835 13.3434Z" fill="#666666"/>
</g>
<defs>
<clipPath id="clip0_2784_14248">
<rect width="20" height="20" fill="white" transform="translate(0.558594)"/>
</clipPath>
</defs>
</svg>
