<svg width="13" height="13" viewBox="0 0 13 13" fill="none" xmlns="http://www.w3.org/2000/svg">
<path fill-rule="evenodd" clip-rule="evenodd" d="M1.22656 6.96751C1.22656 6.86806 1.26607 6.77268 1.3364 6.70235C1.40672 6.63202 1.50211 6.59251 1.60156 6.59251H10.4463L8.08606 4.23301C8.01565 4.1626 7.97609 4.0671 7.97609 3.96751C7.97609 3.86793 8.01565 3.77243 8.08606 3.70201C8.15648 3.6316 8.25198 3.59204 8.35156 3.59204C8.45114 3.59204 8.54665 3.6316 8.61706 3.70201L11.6171 6.70201C11.652 6.73685 11.6797 6.77823 11.6986 6.82379C11.7175 6.86935 11.7272 6.91819 11.7272 6.96751C11.7272 7.01684 11.7175 7.06568 11.6986 7.11124C11.6797 7.1568 11.652 7.19818 11.6171 7.23301L8.61706 10.233C8.54665 10.3034 8.45114 10.343 8.35156 10.343C8.25198 10.343 8.15648 10.3034 8.08606 10.233C8.01565 10.1626 7.97609 10.0671 7.97609 9.96751C7.97609 9.86793 8.01565 9.77243 8.08606 9.70201L10.4463 7.34251H1.60156C1.50211 7.34251 1.40672 7.30301 1.3364 7.23268C1.26607 7.16235 1.22656 7.06697 1.22656 6.96751Z" fill="#549A3C"/>
</svg>
