<svg width="24" height="24" viewBox="0 0 24 24" fill="none" xmlns="http://www.w3.org/2000/svg">
<path d="M13.2 2.15881C7.86598 2.15881 3.52678 6.43321 3.39718 11.754V12H0.550781L4.86358 16.6728L9.05638 12H5.84998V11.754C5.97838 7.79041 9.21958 4.62001 13.2 4.62001C17.2632 4.62001 20.5572 7.92481 20.5572 12C20.5572 16.0752 17.2632 19.38 13.2 19.38C11.6334 19.3809 10.1078 18.8791 8.84758 17.9484L7.16038 19.7532C8.8824 21.1067 11.0097 21.8413 13.2 21.8388C18.618 21.8388 23.0088 17.4348 23.0088 12C23.0088 6.56521 18.618 2.15881 13.2 2.15881ZM12 6.00001V12C12.0014 12.318 12.1276 12.6227 12.3516 12.8484L16.1916 16.6884C16.5312 16.4688 16.8516 16.2216 17.136 15.9348L14.4 13.2V6.00001H12Z" fill="#549A3C"/>
</svg>
