<svg width="24" height="24" viewBox="0 0 24 24" fill="none" xmlns="http://www.w3.org/2000/svg">
<path d="M7.2 7.20001C7.2 7.04088 7.26321 6.88827 7.37574 6.77575C7.48826 6.66323 7.64087 6.60001 7.8 6.60001H11.4C11.5591 6.60001 11.7117 6.66323 11.8243 6.77575C11.9368 6.88827 12 7.04088 12 7.20001C12 7.35914 11.9368 7.51175 11.8243 7.62428C11.7117 7.7368 11.5591 7.80001 11.4 7.80001H7.8C7.64087 7.80001 7.48826 7.7368 7.37574 7.62428C7.26321 7.51175 7.2 7.35914 7.2 7.20001ZM7.8 9.00001C7.64087 9.00001 7.48826 9.06323 7.37574 9.17575C7.26321 9.28827 7.2 9.44088 7.2 9.60001C7.2 9.75914 7.26321 9.91175 7.37574 10.0243C7.48826 10.1368 7.64087 10.2 7.8 10.2H10.2C10.3591 10.2 10.5117 10.1368 10.6243 10.0243C10.7368 9.91175 10.8 9.75914 10.8 9.60001C10.8 9.44088 10.7368 9.28827 10.6243 9.17575C10.5117 9.06323 10.3591 9.00001 10.2 9.00001H7.8ZM9.6 1.20001C8.35086 1.19959 7.1231 1.52416 6.03736 2.14183C4.95161 2.7595 4.04525 3.64901 3.40731 4.72297C2.76938 5.79693 2.42182 7.01838 2.3988 8.26731C2.37578 9.51624 2.67808 10.7497 3.276 11.8464L2.424 14.8344C2.39402 14.9393 2.39322 15.0504 2.42169 15.1558C2.45016 15.2611 2.50681 15.3567 2.58556 15.4322C2.66431 15.5078 2.76217 15.5604 2.8686 15.5845C2.97503 15.6085 3.08602 15.6031 3.1896 15.5688L5.9952 14.634C6.95143 15.1866 8.02196 15.5118 9.12398 15.5844C10.226 15.6571 11.3299 15.4752 12.3504 15.053C13.3709 14.6307 14.2806 13.9793 15.0091 13.1493C15.7376 12.3192 16.2654 11.3327 16.5516 10.266C16.8378 9.19933 16.8748 8.08111 16.6597 6.99785C16.4447 5.91459 15.9833 4.89533 15.3113 4.01891C14.6392 3.14249 13.7746 2.43242 12.7843 1.94361C11.7939 1.45481 10.7044 1.20038 9.6 1.20001ZM3.6 8.40001C3.6002 7.06874 4.04314 5.77533 4.8591 4.72342C5.67505 3.67152 6.81768 2.92085 8.10708 2.5896C9.39649 2.25835 10.7594 2.36534 11.9814 2.89372C13.2033 3.4221 14.2148 4.34185 14.8566 5.50819C15.4985 6.67453 15.7342 8.02121 15.5266 9.33621C15.3191 10.6512 14.6802 11.8598 13.7103 12.7718C12.7405 13.6838 11.4949 14.2474 10.1697 14.3738C8.84439 14.5002 7.51473 14.1822 6.39 13.47C6.31477 13.4223 6.22986 13.392 6.14143 13.3812C6.05301 13.3704 5.9633 13.3794 5.8788 13.4076L3.8892 14.0712L4.5012 11.934C4.5235 11.8553 4.52947 11.7729 4.51873 11.6918C4.508 11.6107 4.4808 11.5326 4.4388 11.4624C3.88783 10.5361 3.59798 9.47782 3.6 8.40001ZM14.7312 17.9364L11.8488 16.4964C12.3768 16.3488 12.8844 16.152 13.3644 15.9108L15 16.7292L20.4 14.0292V13.2C20.4 12.8818 20.2736 12.5765 20.0485 12.3515C19.8235 12.1264 19.5183 12 19.2 12H17.1912C17.3748 11.616 17.5284 11.214 17.652 10.8H19.2C19.8365 10.8 20.447 11.0529 20.8971 11.503C21.3471 11.953 21.6 12.5635 21.6 13.2V19.2C21.6 19.8365 21.3471 20.447 20.8971 20.8971C20.447 21.3472 19.8365 21.6 19.2 21.6H10.8C10.1635 21.6 9.55303 21.3472 9.10294 20.8971C8.65286 20.447 8.4 19.8365 8.4 19.2V16.716C8.7924 16.7712 9.192 16.8 9.6 16.8V19.2C9.6 19.5183 9.72643 19.8235 9.95147 20.0485C10.1765 20.2736 10.4817 20.4 10.8 20.4H19.2C19.5183 20.4 19.8235 20.2736 20.0485 20.0485C20.2736 19.8235 20.4 19.5183 20.4 19.2V15.3708L15.2688 17.9364C15.1854 17.9782 15.0933 18 15 18C14.9067 18 14.8146 17.9782 14.7312 17.9364Z" fill="#549A3C"/>
</svg>
