<svg width="16" height="17" viewBox="0 0 16 17" fill="none" xmlns="http://www.w3.org/2000/svg">
<g id="chevron-double-right 1">
<path id="Vector" fill-rule="evenodd" clip-rule="evenodd" d="M3.64592 1.99638C3.69236 1.94982 3.74754 1.91288 3.80828 1.88767C3.86903 1.86246 3.93415 1.84949 3.99992 1.84949C4.06568 1.84949 4.13081 1.86246 4.19155 1.88767C4.2523 1.91288 4.30747 1.94982 4.35392 1.99638L10.3539 7.99638C10.4005 8.04283 10.4374 8.098 10.4626 8.15875C10.4878 8.21949 10.5008 8.28461 10.5008 8.35038C10.5008 8.41615 10.4878 8.48127 10.4626 8.54201C10.4374 8.60276 10.4005 8.65794 10.3539 8.70438L4.35392 14.7044C4.26003 14.7983 4.13269 14.851 3.99992 14.851C3.86714 14.851 3.7398 14.7983 3.64592 14.7044C3.55203 14.6105 3.49929 14.4832 3.49929 14.3504C3.49929 14.2176 3.55203 14.0903 3.64592 13.9964L9.29292 8.35038L3.64592 2.70438C3.59935 2.65794 3.56241 2.60276 3.5372 2.54201C3.512 2.48127 3.49902 2.41615 3.49902 2.35038C3.49902 2.28461 3.512 2.21949 3.5372 2.15875C3.56241 2.098 3.59935 2.04283 3.64592 1.99638Z" fill="#333333"/>
<path id="Vector_2" fill-rule="evenodd" clip-rule="evenodd" d="M7.64592 1.99638C7.69236 1.94982 7.74754 1.91288 7.80828 1.88767C7.86903 1.86246 7.93415 1.84949 7.99992 1.84949C8.06568 1.84949 8.13081 1.86246 8.19155 1.88767C8.2523 1.91288 8.30747 1.94982 8.35392 1.99638L14.3539 7.99638C14.4005 8.04283 14.4374 8.098 14.4626 8.15875C14.4878 8.21949 14.5008 8.28461 14.5008 8.35038C14.5008 8.41615 14.4878 8.48127 14.4626 8.54201C14.4374 8.60276 14.4005 8.65794 14.3539 8.70438L8.35392 14.7044C8.26003 14.7983 8.13269 14.851 7.99992 14.851C7.86714 14.851 7.7398 14.7983 7.64592 14.7044C7.55203 14.6105 7.49929 14.4832 7.49929 14.3504C7.49929 14.2176 7.55203 14.0903 7.64592 13.9964L13.2929 8.35038L7.64592 2.70438C7.59935 2.65794 7.56241 2.60276 7.5372 2.54201C7.512 2.48127 7.49902 2.41615 7.49902 2.35038C7.49902 2.28461 7.512 2.21949 7.5372 2.15875C7.56241 2.098 7.59935 2.04283 7.64592 1.99638Z" fill="#333333"/>
</g>
</svg>
