<svg width="21" height="20" viewBox="0 0 21 20" fill="none" xmlns="http://www.w3.org/2000/svg">
<path d="M14.3086 6.25C14.3086 7.24456 13.9135 8.19839 13.2102 8.90165C12.507 9.60491 11.5532 10 10.5586 10C9.56403 10 8.6102 9.60491 7.90694 8.90165C7.20368 8.19839 6.80859 7.24456 6.80859 6.25C6.80859 5.25544 7.20368 4.30161 7.90694 3.59835C8.6102 2.89509 9.56403 2.5 10.5586 2.5C11.5532 2.5 12.507 2.89509 13.2102 3.59835C13.9135 4.30161 14.3086 5.25544 14.3086 6.25ZM10.5586 8.75C11.2216 8.75 11.8575 8.48661 12.3264 8.01777C12.7952 7.54893 13.0586 6.91304 13.0586 6.25C13.0586 5.58696 12.7952 4.95107 12.3264 4.48223C11.8575 4.01339 11.2216 3.75 10.5586 3.75C9.89555 3.75 9.25967 4.01339 8.79083 4.48223C8.32199 4.95107 8.05859 5.58696 8.05859 6.25C8.05859 6.91304 8.32199 7.54893 8.79083 8.01777C9.25967 8.48661 9.89555 8.75 10.5586 8.75ZM10.5586 16.245V17.5H4.30859C4.30859 17.5 3.05859 17.5 3.05859 16.25C3.05859 15 4.30859 11.25 10.5586 11.25C11.2636 11.25 11.9048 11.2975 12.4886 11.3838C12.1037 11.7192 11.7661 12.1052 11.4848 12.5312C11.1766 12.5099 10.8676 12.4995 10.5586 12.5C7.69609 12.5 6.16359 13.35 5.34859 14.165C4.50109 15.0125 4.31109 15.9375 4.30859 16.245H10.5586ZM11.8086 16.25C11.8086 15.9185 11.9403 15.6005 12.1747 15.3661C12.4091 15.1317 12.7271 15 13.0586 15V13.75C13.0586 13.087 13.322 12.4511 13.7908 11.9822C14.2597 11.5134 14.8956 11.25 15.5586 11.25C16.2216 11.25 16.8575 11.5134 17.3264 11.9822C17.7952 12.4511 18.0586 13.087 18.0586 13.75V15C18.3901 15 18.7081 15.1317 18.9425 15.3661C19.1769 15.6005 19.3086 15.9185 19.3086 16.25V18.75C19.3086 19.0815 19.1769 19.3995 18.9425 19.6339C18.7081 19.8683 18.3901 20 18.0586 20H13.0586C12.7271 20 12.4091 19.8683 12.1747 19.6339C11.9403 19.3995 11.8086 19.0815 11.8086 18.75V16.25ZM15.5586 12.5C15.2271 12.5 14.9091 12.6317 14.6747 12.8661C14.4403 13.1005 14.3086 13.4185 14.3086 13.75V15H16.8086V13.75C16.8086 13.4185 16.6769 13.1005 16.4425 12.8661C16.2081 12.6317 15.8901 12.5 15.5586 12.5Z" fill="#666666"/>
</svg>
