<svg width="25" height="24" viewBox="0 0 25 24" fill="none" xmlns="http://www.w3.org/2000/svg">
<g clip-path="url(#clip0_2785_850)">
<path d="M12.892 9.52257L21.1818 17.8516C21.4015 18.0699 21.5758 18.3294 21.6948 18.6152C21.8138 18.9011 21.875 19.2077 21.875 19.5173C21.875 19.827 21.8138 20.1336 21.6948 20.4194C21.5758 20.7053 21.4015 20.9648 21.1818 21.183C20.7378 21.6246 20.1372 21.8725 19.511 21.8725C18.8849 21.8725 18.2842 21.6246 17.8403 21.183L9.52355 12.891M5.36126 15.4657L2.45765 12.562C2.24716 12.3515 2.12891 12.0659 2.12891 11.7682C2.12891 11.4705 2.24716 11.1849 2.45765 10.9744L10.9754 2.45668C11.1859 2.24618 11.4715 2.12793 11.7692 2.12793C12.0669 2.12793 12.3525 2.24618 12.563 2.45668L15.4666 5.36029C15.6771 5.57084 15.7954 5.85639 15.7954 6.15412C15.7954 6.45185 15.6771 6.73739 15.4666 6.94795L6.94893 15.4657C6.73837 15.6761 6.45282 15.7944 6.15509 15.7944C5.85736 15.7944 5.57182 15.6761 5.36126 15.4657V15.4657Z" stroke="#549A3C" stroke-width="1.5" stroke-linecap="round" stroke-linejoin="round"/>
<line x1="0.751953" y1="23.25" x2="9.25195" y2="23.25" stroke="#549A3C" stroke-width="1.5" stroke-linecap="round"/>
</g>
<defs>
<clipPath id="clip0_2785_850">
<rect width="24" height="24" fill="white" transform="matrix(-1 0 0 1 24.002 0)"/>
</clipPath>
</defs>
</svg>
