<svg width="24" height="24" viewBox="0 0 24 24" fill="none" xmlns="http://www.w3.org/2000/svg">
<path d="M20.8854 21.1667H4.11458C3.31903 21.1667 2.55362 20.8623 1.97536 20.316C1.3971 19.7696 1.04983 19.0227 1.00479 18.2284L1 18.0521V4.15625C0.999933 3.60988 1.20728 3.08385 1.58015 2.68449C1.95301 2.28512 2.46358 2.04219 3.00867 2.00479L3.15625 2H18.0104C18.5568 1.99993 19.0828 2.20728 19.4822 2.58015C19.8815 2.95301 20.1245 3.46358 20.1619 4.00867L20.1667 4.15625V4.875H21.8438C22.3901 4.87493 22.9161 5.08228 23.3155 5.45515C23.7149 5.82801 23.9578 6.33858 23.9952 6.88367L24 7.03125V18.0521C24.0001 18.8476 23.6957 19.613 23.1493 20.1913C22.603 20.7696 21.856 21.1168 21.0618 21.1619L20.8854 21.1667H4.11458H20.8854ZM4.11458 19.7292H20.8854C21.3065 19.7291 21.7121 19.5707 22.0217 19.2854C22.3314 19.0001 22.5223 18.6088 22.5567 18.1891L22.5625 18.0521V7.03125C22.5625 6.85756 22.4996 6.68976 22.3854 6.55886C22.2713 6.42796 22.1136 6.34283 21.9415 6.31921L21.8438 6.3125H20.1667V16.6146C20.1667 16.7883 20.1038 16.9561 19.9896 17.087C19.8754 17.2179 19.7177 17.303 19.5457 17.3266L19.4479 17.3333C19.2742 17.3333 19.1064 17.2704 18.9755 17.1563C18.8446 17.0421 18.7595 16.8844 18.7359 16.7123L18.7292 16.6146V4.15625C18.7292 3.98256 18.6663 3.81476 18.5521 3.68386C18.4379 3.55296 18.2802 3.46783 18.1082 3.44421L18.0104 3.4375H3.15625C2.98256 3.43751 2.81476 3.50041 2.68386 3.61457C2.55296 3.72873 2.46783 3.88643 2.44421 4.0585L2.4375 4.15625V18.0521C2.43752 18.473 2.59579 18.8785 2.8809 19.1881C3.16601 19.4977 3.55712 19.6888 3.97658 19.7234L4.11458 19.7292H20.8854H4.11458ZM8.90242 10.6288C9.56367 10.6288 10.1003 11.1655 10.1003 11.8267V15.1771C10.1003 15.8383 9.56367 16.375 8.90242 16.375H5.55208C4.89083 16.375 4.35417 15.8383 4.35417 15.1771V11.8267C4.35417 11.1655 4.89083 10.6288 5.55208 10.6288H8.90242ZM12.7396 14.9375H16.0899C16.272 14.9376 16.4473 15.0067 16.5804 15.1311C16.7134 15.2554 16.7944 15.4256 16.8068 15.6073C16.8192 15.7889 16.7622 15.9686 16.6473 16.1098C16.5323 16.2511 16.3681 16.3435 16.1877 16.3683L16.0899 16.375H12.7396C12.5575 16.3749 12.3822 16.3058 12.2491 16.1814C12.1161 16.0571 12.0351 15.8869 12.0227 15.7052C12.0103 15.5236 12.0673 15.3439 12.1822 15.2027C12.2972 15.0614 12.4614 14.969 12.6418 14.9442L12.7396 14.9375H16.0899H12.7396ZM8.66379 12.0663H5.79167V14.9375H8.66379V12.0663ZM12.7396 10.6288H16.0899C16.272 10.6289 16.4473 10.6981 16.5804 10.8224C16.7134 10.9467 16.7944 11.1169 16.8068 11.2986C16.8192 11.4803 16.7622 11.6599 16.6473 11.8012C16.5323 11.9424 16.3681 12.0348 16.1877 12.0596L16.0899 12.0663H12.7396C12.5562 12.0682 12.379 11.9999 12.2443 11.8754C12.1097 11.7509 12.0277 11.5796 12.0152 11.3966C12.0027 11.2136 12.0606 11.0328 12.1771 10.8911C12.2936 10.7494 12.4599 10.6577 12.6418 10.6346L12.7396 10.6288H16.0899H12.7396ZM5.06908 6.30963H16.0899C16.272 6.30968 16.4473 6.37886 16.5804 6.50318C16.7134 6.62751 16.7944 6.7977 16.8068 6.97939C16.8192 7.16107 16.7622 7.34069 16.6473 7.48195C16.5323 7.62322 16.3681 7.71559 16.1877 7.74042L16.0899 7.74713H5.06908C4.88706 7.74683 4.71193 7.67748 4.57905 7.55308C4.44616 7.42868 4.36543 7.2585 4.35314 7.07689C4.34086 6.89528 4.39794 6.71577 4.51285 6.57461C4.62777 6.43345 4.79197 6.34114 4.97229 6.31633L5.06908 6.30963H16.0899H5.06908Z" fill="#828282"/>
</svg>
