<svg width="24" height="24" viewBox="0 0 24 24" fill="none" xmlns="http://www.w3.org/2000/svg">
<path d="M16.7143 13.7144C17.9646 13.7144 19.1637 14.2111 20.0478 15.0952C20.9319 15.9793 21.4286 17.1784 21.4286 18.4287C21.4286 19.679 20.9319 20.8781 20.0478 21.7622C19.1637 22.6463 17.9646 23.143 16.7143 23.143C15.464 23.143 14.2649 22.6463 13.3808 21.7622C12.4967 20.8781 12 19.679 12 18.4287C12 17.1784 12.4967 15.9793 13.3808 15.0952C14.2649 14.2111 15.464 13.7144 16.7143 13.7144ZM12 1.92871C12.8229 1.92864 13.6144 2.24414 14.2116 2.81023C14.8088 3.37632 15.1661 4.14988 15.21 4.97157L15.2143 5.143H19.9286C20.0915 5.14305 20.2483 5.20492 20.3673 5.31612C20.4863 5.42731 20.5587 5.57954 20.5698 5.74204C20.5809 5.90454 20.5299 6.06519 20.4271 6.19154C20.3243 6.31789 20.1774 6.40051 20.016 6.42271L19.9286 6.42871H19.0209L18.4774 13.1419C18.0663 13.0049 17.6406 12.9166 17.2089 12.8787L17.7317 6.42871H6.2683L7.3063 19.2276C7.3455 19.7105 7.56505 20.161 7.92128 20.4895C8.27752 20.8179 8.74434 21.0002 9.22887 21.0001L11.7712 21.001C12.0163 21.4712 12.3271 21.9041 12.6943 22.2867L9.22887 22.2859C8.42131 22.2859 7.64332 21.982 7.04965 21.4345C6.45597 20.8871 6.09013 20.1362 6.02487 19.3313L4.9783 6.42871H4.07145C3.9161 6.4287 3.76601 6.37245 3.64893 6.27034C3.53186 6.16823 3.45572 6.02719 3.43459 5.87328L3.42859 5.78585C3.4286 5.63051 3.48485 5.48042 3.58696 5.36334C3.68907 5.24627 3.83011 5.17012 3.98402 5.149L4.07145 5.143H8.78573C8.78573 4.29051 9.12438 3.47295 9.72717 2.87015C10.33 2.26736 11.1475 1.92871 12 1.92871ZM14.592 16.3064C14.5117 16.3868 14.4665 16.4958 14.4665 16.6094C14.4665 16.7231 14.5117 16.8321 14.592 16.9124L16.1083 18.4296L14.5937 19.9433C14.5133 20.0236 14.468 20.1327 14.4679 20.2464C14.4678 20.3601 14.5129 20.4692 14.5933 20.5497C14.6737 20.6302 14.7827 20.6754 14.8964 20.6755C15.0102 20.6756 15.1193 20.6305 15.1997 20.5501L16.7143 19.0356L18.2314 20.5519C18.271 20.5928 18.3183 20.6254 18.3706 20.6479C18.4228 20.6704 18.4791 20.6822 18.536 20.6827C18.5929 20.6832 18.6493 20.6723 18.702 20.6508C18.7547 20.6292 18.8025 20.5974 18.8428 20.5572C18.883 20.5169 18.9148 20.4691 18.9364 20.4164C18.9579 20.3637 18.9688 20.3073 18.9683 20.2504C18.9678 20.1935 18.956 20.1373 18.9335 20.085C18.911 20.0327 18.8784 19.9854 18.8374 19.9459L17.3212 18.4287L18.8392 16.9116C18.9172 16.8307 18.9604 16.7225 18.9594 16.6101C18.9585 16.4977 18.9134 16.3902 18.8339 16.3108C18.7545 16.2313 18.647 16.1863 18.5346 16.1853C18.4222 16.1843 18.314 16.2275 18.2332 16.3056L16.7152 17.8227L15.198 16.3056C15.1176 16.2252 15.0087 16.1801 14.895 16.1801C14.7814 16.1801 14.6724 16.2252 14.592 16.3056V16.3064ZM12 3.21443C11.5113 3.21437 11.0409 3.39982 10.6837 3.73331C10.3265 4.0668 10.1092 4.52346 10.0757 5.011L10.0714 5.143H13.9286L13.9243 5.011C13.8909 4.52346 13.6736 4.0668 13.3164 3.73331C12.9592 3.39982 12.4887 3.21437 12 3.21443Z" fill="#DD2323"/>
</svg>
