<svg width="24" height="24" viewBox="0 0 24 24" fill="none" xmlns="http://www.w3.org/2000/svg">
<path d="M4.67723 7.60274V16.1325M20.327 2L13.7296 7.35709H2.2042C1.88515 7.35815 1.57947 7.48536 1.35387 7.71096C1.12827 7.93656 1.00106 8.24224 1 8.56129V15.2615C1.00106 15.5805 1.12827 15.8862 1.35387 16.1118C1.57947 16.3374 1.88515 16.4646 2.2042 16.4657H13.7292L20.3274 21.7352L20.3266 2H20.327Z" stroke="#828282" stroke-linecap="round" stroke-linejoin="round"/>
<path d="M21.8822 10.2422C22.2178 10.4081 22.5004 10.6645 22.6979 10.9825C22.8955 11.3006 23.0001 11.6675 23 12.0419C22.9999 12.4163 22.8951 12.7832 22.6975 13.1012C22.4998 13.4191 22.2171 13.6754 21.8814 13.8411M7.88778 18.0847V21.6973C7.88778 21.9103 7.8032 22.1145 7.65264 22.265C7.50209 22.4156 7.29789 22.5001 7.08498 22.5001H5.47938C5.26646 22.5001 5.06226 22.4156 4.91171 22.265C4.76116 22.1145 4.67657 21.9103 4.67657 21.6973V18.0847H7.88778Z" stroke="#828282" stroke-linecap="round" stroke-linejoin="round"/>
</svg>
