<svg width="24" height="24" viewBox="0 0 24 24" fill="none" xmlns="http://www.w3.org/2000/svg">
<path fill-rule="evenodd" clip-rule="evenodd" d="M12.89 1.45003L20.89 5.45003C21.5697 5.78776 21.9996 6.48108 22 7.24003V16.77C21.9996 17.529 21.5697 18.2223 20.89 18.56L12.89 22.56C12.3266 22.8419 11.6634 22.8419 11.1 22.56L3.1 18.56C2.421 18.2179 1.99471 17.5203 2 16.76V7.24003C2.00041 6.48108 2.43035 5.78776 3.11 5.45003L11.11 1.45003C11.6706 1.17144 12.3294 1.17144 12.89 1.45003Z" stroke="black" stroke-width="2" stroke-linecap="round" stroke-linejoin="round"/>
<path d="M2.32001 6.15997L12 11L21.68 6.15997" stroke="black" stroke-width="2" stroke-linecap="round" stroke-linejoin="round"/>
<path d="M12 22.76V11" stroke="black" stroke-width="2" stroke-linecap="round" stroke-linejoin="round"/>
<path d="M7 3.5L17 8.5" stroke="black" stroke-width="2" stroke-linecap="round" stroke-linejoin="round"/>
</svg>
