<svg width="24" height="24" viewBox="0 0 24 24" fill="none" xmlns="http://www.w3.org/2000/svg">
<path fill-rule="evenodd" clip-rule="evenodd" d="M12 14C13.1046 14 14 13.1046 14 12C14 10.8954 13.1046 10 12 10C10.8954 10 10 10.8954 10 12C10 13.1046 10.8954 14 12 14Z" stroke="black" stroke-width="2" stroke-linecap="round" stroke-linejoin="round"/>
<path d="M16.9467 7.05249C16.556 6.66219 15.9228 6.66254 15.5325 7.05328C15.1422 7.44402 15.1425 8.07719 15.5333 8.46749L16.9467 7.05249ZM15.5333 15.5425C15.1425 15.9328 15.1422 16.566 15.5325 16.9567C15.9228 17.3474 16.556 17.3478 16.9467 16.9575L15.5333 15.5425ZM7.05329 16.9475C7.44403 17.3378 8.07719 17.3374 8.4675 16.9467C8.85781 16.556 8.85746 15.9228 8.46671 15.5325L7.05329 16.9475ZM8.46671 8.45749C8.85746 8.06719 8.85781 7.43402 8.4675 7.04328C8.07719 6.65254 7.44403 6.65219 7.05329 7.04249L8.46671 8.45749ZM19.7772 4.22299C19.3867 3.83241 18.7536 3.83231 18.363 4.22278C17.9724 4.61324 17.9723 5.24641 18.3628 5.63699L19.7772 4.22299ZM18.3628 18.363C17.9723 18.7536 17.9724 19.3867 18.363 19.7772C18.7536 20.1677 19.3867 20.1676 19.7772 19.777L18.3628 18.363ZM4.22279 19.777C4.61325 20.1676 5.24642 20.1677 5.637 19.7772C6.02758 19.3867 6.02768 18.7536 5.63721 18.363L4.22279 19.777ZM5.63721 5.63699C6.02768 5.24641 6.02758 4.61324 5.637 4.22278C5.24642 3.83231 4.61325 3.83241 4.22279 4.22299L5.63721 5.63699ZM15.5333 8.46749C16.4722 9.40533 16.9997 10.6779 16.9997 12.005H18.9997C18.9997 10.1471 18.2612 8.36547 16.9467 7.05249L15.5333 8.46749ZM16.9997 12.005C16.9997 13.332 16.4722 14.6047 15.5333 15.5425L16.9467 16.9575C18.2612 15.6445 18.9997 13.8629 18.9997 12.005H16.9997ZM8.46671 15.5325C7.52783 14.5947 7.00028 13.322 7.00028 11.995H5.00028C5.00028 13.8529 5.73885 15.6345 7.05329 16.9475L8.46671 15.5325ZM7.00028 11.995C7.00028 10.6679 7.52783 9.39533 8.46671 8.45749L7.05329 7.04249C5.73885 8.35547 5.00028 10.1371 5.00028 11.995H7.00028ZM18.3628 5.63699C21.8762 9.15149 21.8762 14.8485 18.3628 18.363L19.7772 19.777C24.0714 15.4815 24.0714 8.51849 19.7772 4.22299L18.3628 5.63699ZM5.63721 18.363C2.12378 14.8485 2.12378 9.15149 5.63721 5.63699L4.22279 4.22299C-0.071414 8.51849 -0.071414 15.4815 4.22279 19.777L5.63721 18.363Z" fill="black"/>
</svg>
