<svg width="24" height="24" viewBox="0 0 24 24" fill="none" xmlns="http://www.w3.org/2000/svg">
<path d="M23 4V10H17" stroke="black" stroke-width="2" stroke-linecap="round" stroke-linejoin="round"/>
<path d="M1 20V14H7" stroke="black" stroke-width="2" stroke-linecap="round" stroke-linejoin="round"/>
<path d="M2.56732 8.66641C2.38308 9.18705 2.6558 9.75848 3.17644 9.94272C3.69709 10.127 4.26852 9.85425 4.45276 9.3336L2.56732 8.66641ZM18.36 5.64L17.6528 6.34693C17.6601 6.35432 17.6676 6.3616 17.6753 6.36875L18.36 5.64ZM22.3153 10.7288C22.7177 11.1069 23.3506 11.0873 23.7288 10.6848C24.107 10.2823 24.0873 9.64944 23.6848 9.27125L22.3153 10.7288ZM1.68481 13.2712C1.28233 12.8931 0.649469 12.9127 0.271277 13.3152C-0.106914 13.7177 -0.0872253 14.3506 0.315254 14.7288L1.68481 13.2712ZM5.64003 18.36L6.34731 17.6531C6.33993 17.6457 6.33242 17.6384 6.32481 17.6312L5.64003 18.36ZM21.4327 15.3336C21.617 14.813 21.3443 14.2415 20.8236 14.0573C20.303 13.873 19.7316 14.1458 19.5473 14.6664L21.4327 15.3336ZM4.45276 9.3336C5.3691 6.7441 7.54988 4.80579 10.229 4.19961L9.78764 2.24891C6.43873 3.00665 3.71275 5.42953 2.56732 8.66641L4.45276 9.3336ZM10.229 4.19961C12.9081 3.59342 15.7109 4.40413 17.6528 6.34693L19.0673 4.93307C16.64 2.50457 13.1366 1.49118 9.78764 2.24891L10.229 4.19961ZM17.6753 6.36875L22.3153 10.7288L23.6848 9.27125L19.0448 4.91125L17.6753 6.36875ZM0.315254 14.7288L4.95525 19.0888L6.32481 17.6312L1.68481 13.2712L0.315254 14.7288ZM4.93275 19.0669C7.36003 21.4954 10.8635 22.5088 14.2124 21.7511L13.7711 19.8004C11.0919 20.4066 8.28914 19.5959 6.34731 17.6531L4.93275 19.0669ZM14.2124 21.7511C17.5613 20.9934 20.2873 18.5705 21.4327 15.3336L19.5473 14.6664C18.631 17.2559 16.4502 19.1942 13.7711 19.8004L14.2124 21.7511Z" fill="black"/>
</svg>
