<svg width="19" height="19" viewBox="0 0 19 19" fill="none" xmlns="http://www.w3.org/2000/svg">
<path fill-rule="evenodd" clip-rule="evenodd" d="M16.7013 18.8853C14.9162 18.7947 13.1713 18.4587 11.5171 17.9248C12.3655 15.9707 11.6435 13.6374 9.74757 12.5518C7.85723 11.4538 5.46005 11.9911 4.20094 13.7247C2.86572 12.5283 1.68607 11.1536 0.694454 9.61471C1.68607 8.07468 2.86572 6.70057 4.20094 5.50862C5.46005 7.24115 7.85723 7.77487 9.74757 6.68029C11.6435 5.58682 12.3655 3.258 11.5171 1.30722C13.1713 0.774475 14.9162 0.442036 16.7013 0.348022C17.534 1.95073 18.1182 3.64068 18.4931 5.35866C16.3734 5.59929 14.7191 7.39125 14.7191 9.5793C14.7191 11.7662 16.3811 13.5667 18.5054 13.7995C18.1383 15.5443 17.5418 17.258 16.7013 18.8853Z" fill="#ECECEC" fill-opacity="0.06"/>
</svg>
