<svg width="15" height="15" viewBox="0 0 15 15" fill="#DD2323" xmlns="http://www.w3.org/2000/svg">
<path fill-rule="evenodd" clip-rule="evenodd" d="M14.57 2.08796C14.4961 3.49077 14.2348 4.85844 13.8162 6.16187C12.2806 5.49169 10.447 6.06236 9.59387 7.55225C8.72755 9.03774 9.15312 10.9218 10.5146 11.9086C9.57177 12.9569 8.4951 13.8848 7.28137 14.6667C6.07205 13.8848 4.99468 12.9569 4.05536 11.9086C5.41684 10.9218 5.8366 9.03774 4.97644 7.55225C4.11716 6.06236 2.28939 5.49169 0.753767 6.16187C0.337759 4.85844 0.0738788 3.49077 0 2.08796C1.26298 1.4336 2.59022 0.971001 3.94027 0.679883C4.12936 2.34216 5.53842 3.6429 7.25698 3.6429C8.97642 3.6429 10.388 2.33948 10.5709 0.666656C11.9456 0.956015 13.292 1.42745 14.57 2.08796Z"/>
</svg>
