<svg width="120" height="121" viewBox="0 0 120 121" fill="none" xmlns="http://www.w3.org/2000/svg">
<path d="M73.0799 34.4246C78.5463 35.5711 83.888 37.4403 88.9797 40.0575C91.7255 34.6491 94.4963 29.2403 97.2421 23.8571C85.5602 17.8381 72.793 14.8284 60.0254 14.8284C47.2578 14.8284 34.4902 17.8381 22.8086 23.8571C25.5544 29.2652 28.3249 34.6491 31.0707 40.0575C36.0879 37.4652 41.3545 35.6209 46.7461 34.4744C47.4699 41.104 53.0863 46.2386 59.9256 46.2386C66.7397 46.2386 72.356 41.0791 73.0799 34.4246V34.4246Z" fill="#DD2323"/>
<path d="M89.8033 41.4788C89.5286 47.1113 88.5055 52.5945 86.8081 57.8286C80.6926 55.1616 73.429 57.4295 70.0095 63.3367C66.5897 69.2435 68.2619 76.6958 73.6787 80.6338C69.9344 84.7709 65.6663 88.4845 60.8486 91.5752C64.1684 96.6596 67.4632 101.744 70.7829 106.828C92.8986 92.6469 106.752 68.6953 108 42.4505C101.934 42.1265 95.8689 41.8025 89.8033 41.4788V41.4788Z" fill="#549A3C"/>
<path d="M46.3213 80.6338C51.7378 76.6958 53.41 69.2435 49.9905 63.3367C46.571 57.4295 39.3074 55.1616 33.192 57.8286C31.4945 52.5945 30.4711 47.1113 30.1968 41.4788C24.1312 41.8025 18.0656 42.1265 12 42.4256C13.2482 68.6452 27.1014 92.5971 49.2168 106.803C52.5365 101.719 55.8317 96.6347 59.1511 91.5503C54.3586 88.4845 50.0653 84.7709 46.3213 80.6338V80.6338Z" fill="#DD2323"/>
</svg>
