<?xml version="1.0" standalone="no"?>
<!DOCTYPE svg PUBLIC "-//W3C//DTD SVG 20010904//EN"
 "http://www.w3.org/TR/2001/REC-SVG-20010904/DTD/svg10.dtd">
<svg version="1.0" xmlns="http://www.w3.org/2000/svg"
 width="968.000000pt" height="968.000000pt" viewBox="0 0 968.000000 968.000000"
 preserveAspectRatio="xMidYMid meet">
<metadata>
Created by potrace 1.14, written by Peter Selinger 2001-2017
</metadata>
<g transform="translate(0.000000,968.000000) scale(0.100000,-0.100000)"
fill="#000000" stroke="none">
<path d="M4687 8493 c-1 0 -67 -4 -147 -7 -80 -3 -167 -8 -195 -11 -27 -3 -79
-7 -115 -10 -36 -2 -76 -7 -90 -10 -14 -2 -50 -7 -80 -10 -30 -3 -64 -7 -76
-9 -11 -2 -45 -7 -75 -10 -30 -3 -65 -8 -79 -11 -14 -3 -38 -8 -55 -10 -28 -4
-56 -9 -115 -20 -46 -9 -67 -13 -106 -19 -21 -4 -63 -13 -94 -21 -30 -8 -66
-16 -80 -18 -14 -3 -71 -17 -127 -32 -56 -15 -108 -28 -115 -29 -7 -1 -40 -10
-73 -20 -33 -10 -67 -20 -75 -21 -8 -2 -34 -10 -57 -19 -24 -8 -43 -13 -43 -9
0 3 -7 -1 -17 -8 -9 -8 -17 -13 -17 -11 -1 2 -8 1 -16 -2 -8 -2 -40 -12 -70
-22 -30 -10 -57 -19 -60 -19 -3 -1 -12 -5 -20 -8 -20 -8 -232 -87 -245 -91
-12 -4 -81 -33 -110 -46 -39 -18 -80 -33 -87 -32 -5 1 -8 -2 -8 -8 0 -5 -7
-10 -15 -10 -13 0 -231 -99 -265 -120 -8 -6 -32 -17 -52 -26 -38 -16 -47 -34
-28 -57 6 -7 62 -115 126 -242 64 -126 132 -258 150 -292 19 -35 31 -63 28
-63 -4 0 -1 -7 6 -16 8 -8 41 -70 75 -137 201 -397 259 -507 271 -507 7 0 19
7 28 15 8 8 19 15 24 15 5 0 41 15 78 34 38 18 92 43 119 55 28 13 64 29 80
36 92 41 429 163 501 180 10 3 75 21 144 40 69 20 134 37 145 40 41 8 71 15
97 20 25 6 27 3 33 -32 15 -97 80 -303 95 -303 3 0 7 -6 7 -13 0 -7 20 -45 45
-83 24 -38 46 -73 48 -79 2 -5 45 -51 94 -101 136 -136 278 -224 446 -275 41
-13 80 -24 85 -25 6 0 12 -2 15 -3 31 -15 293 -20 370 -8 42 7 152 33 175 41
6 2 21 7 33 11 42 14 183 84 198 100 9 8 22 15 30 15 8 0 14 4 14 8 0 4 13 15
28 25 42 24 176 159 213 214 18 27 36 50 39 53 12 9 82 148 86 169 2 8 6 17
11 20 4 3 9 11 9 16 1 6 11 39 22 75 19 62 38 157 34 173 -3 9 24 9 73 -3 22
-5 55 -12 74 -15 19 -3 38 -8 43 -11 5 -3 19 -7 32 -10 13 -2 61 -15 107 -28
46 -13 87 -22 91 -20 5 3 8 0 8 -5 0 -6 8 -11 18 -11 15 0 83 -21 122 -37 8
-3 17 -7 20 -8 21 -5 121 -39 145 -49 94 -40 201 -80 208 -78 4 1 7 -2 7 -8 0
-6 3 -9 8 -8 8 2 34 -9 201 -88 88 -43 116 -52 127 -43 8 6 12 15 9 19 -3 5
-2 10 3 12 4 1 40 68 80 148 163 324 303 595 312 604 6 6 10 16 10 23 0 7 11
31 25 53 14 22 23 40 21 40 -3 0 12 30 32 68 21 37 55 103 76 147 21 44 43 83
48 86 5 3 9 9 9 13 -1 3 5 19 14 35 14 28 13 30 -10 45 -13 9 -27 16 -29 16
-3 0 -58 26 -123 58 -65 32 -154 73 -198 91 -44 18 -84 36 -90 40 -5 3 -12 6
-15 7 -5 1 -33 11 -105 40 -22 9 -49 20 -60 24 -11 4 -38 15 -60 25 -22 9 -49
19 -60 21 -11 2 -29 8 -40 13 -18 9 -142 49 -340 111 -83 26 -79 25 -132 35
-24 4 -43 11 -43 14 0 4 -9 7 -20 8 -17 2 -99 20 -310 70 -30 7 -37 9 -115 22
-96 17 -109 20 -130 24 -11 3 -45 8 -75 12 -30 4 -64 9 -75 12 -23 5 -54 9
-146 17 -37 4 -77 9 -90 11 -13 3 -57 7 -99 11 -41 3 -91 7 -110 9 -88 10
-636 25 -643 18z"/>
<path d="M2447 6364 c-3 -3 -50 -8 -104 -10 -176 -7 -318 -13 -318 -15 0 -1
-31 -3 -255 -14 -63 -3 -144 -7 -180 -9 -36 -2 -130 -7 -210 -11 -80 -3 -170
-8 -200 -10 -30 -2 -83 -4 -118 -6 -34 -1 -65 -6 -68 -11 -3 -4 -1 -8 3 -8 5
0 9 -26 9 -57 1 -57 10 -178 21 -278 3 -27 6 -67 6 -87 1 -21 4 -38 7 -38 3 0
5 -10 6 -22 1 -32 14 -140 19 -158 2 -8 6 -35 9 -60 3 -25 8 -56 11 -70 3 -14
9 -51 15 -82 6 -32 12 -68 14 -80 2 -13 7 -30 10 -38 5 -14 12 -49 23 -115 2
-16 7 -37 10 -45 4 -8 8 -24 9 -35 10 -78 148 -542 207 -701 9 -21 30 -77 47
-124 18 -47 35 -89 38 -95 4 -5 7 -16 8 -23 2 -8 9 -28 17 -45 8 -18 29 -66
47 -107 18 -41 52 -117 76 -168 24 -52 44 -98 44 -103 0 -5 5 -9 12 -9 6 0 9
-2 6 -5 -3 -3 14 -42 38 -86 24 -45 49 -94 56 -110 7 -16 16 -29 20 -29 5 0 8
-9 8 -20 0 -11 4 -20 8 -20 5 0 23 -28 40 -62 18 -35 37 -70 42 -78 12 -18
100 -164 121 -199 8 -14 22 -34 32 -45 9 -11 17 -24 17 -29 0 -4 6 -15 13 -22
30 -34 35 -43 30 -49 -4 -3 -2 -6 3 -6 5 0 18 -15 29 -32 10 -18 50 -76 88
-128 37 -52 76 -106 85 -119 9 -13 22 -28 27 -35 6 -6 26 -31 45 -56 19 -25
37 -47 40 -50 3 -3 19 -23 36 -45 16 -21 36 -46 44 -55 8 -9 35 -40 60 -70
184 -218 475 -510 710 -710 14 -12 39 -34 55 -48 17 -15 47 -39 67 -54 20 -15
42 -34 50 -41 7 -7 34 -28 61 -47 26 -18 47 -37 47 -42 0 -4 6 -8 14 -8 7 0
19 -7 27 -16 7 -8 35 -31 63 -50 28 -19 98 -69 156 -110 58 -41 115 -78 127
-84 11 -5 24 -14 28 -19 7 -13 35 -15 35 -2 0 8 159 255 179 278 6 7 11 15 11
18 0 3 22 38 49 78 99 148 201 308 201 317 0 6 4 10 8 10 4 0 21 23 37 50 16
28 33 50 37 50 4 0 8 5 8 10 0 6 53 90 117 188 65 97 120 184 124 192 7 18 2
23 -91 84 -68 44 -298 214 -326 240 -7 6 -31 27 -55 46 -58 47 -127 106 -168
144 -54 51 -324 319 -350 348 l-24 27 34 28 c104 85 210 207 254 294 10 19 21
36 24 39 7 5 25 48 61 143 84 218 79 507 -12 737 -67 170 -207 355 -343 455
-22 17 -42 32 -45 35 -3 3 -18 12 -35 21 -16 9 -55 30 -85 47 -61 33 -248 98
-257 88 -3 -3 -13 -1 -22 3 -9 5 -40 12 -70 15 -30 3 -56 8 -59 10 -2 3 -15 1
-28 -4 -13 -5 -24 -6 -24 -2 0 8 -23 7 -125 -2 -97 -9 -219 -37 -267 -62 -49
-25 -60 -18 -74 51 -2 11 -8 31 -14 45 -12 32 -92 338 -95 365 -1 11 -5 29 -8
40 -4 11 -9 36 -11 55 -3 19 -8 49 -12 65 -3 17 -7 39 -8 50 -1 11 -4 25 -7
30 -3 6 -7 28 -8 50 -2 22 -7 48 -12 57 -7 12 -6 18 1 18 6 0 8 5 4 11 -3 6
-9 28 -11 48 -5 42 -11 76 -13 76 0 0 -3 34 -6 75 -2 41 -6 93 -8 115 -2 22
-5 64 -7 93 -1 28 -3 52 -4 52 -1 0 -4 -3 -8 -6z"/>
<path d="M7219 6307 c-2 -94 -27 -342 -45 -452 -3 -16 -7 -41 -9 -55 -6 -40
-16 -101 -21 -124 -11 -50 -16 -72 -17 -88 -1 -10 -4 -18 -7 -18 -3 0 -5 -10
-6 -22 -1 -27 -13 -88 -19 -98 -2 -4 -6 -20 -9 -36 -3 -16 -24 -95 -47 -174
-23 -80 -42 -150 -42 -157 -1 -22 -25 -22 -96 2 -39 14 -83 26 -98 29 -16 2
-28 5 -28 6 0 3 -39 9 -100 15 -33 4 -62 8 -64 10 -1 2 -14 0 -28 -6 -16 -6
-22 -6 -18 1 4 7 -2 9 -17 6 -12 -3 -52 -8 -88 -11 -58 -4 -95 -10 -110 -15
-3 -1 -9 -2 -13 -1 -30 5 -275 -90 -289 -111 -4 -7 -8 -9 -8 -5 0 16 -155 -99
-221 -163 -134 -131 -260 -348 -285 -490 -3 -14 -7 -32 -11 -40 -6 -16 -10
-40 -17 -108 -3 -23 -8 -47 -11 -52 -3 -5 -1 -11 4 -15 7 -3 7 -15 1 -29 -5
-13 -7 -26 -6 -27 2 -2 6 -40 10 -84 6 -73 12 -120 16 -120 1 0 4 -11 6 -25
15 -80 99 -290 116 -290 4 0 8 -6 8 -14 0 -36 240 -306 271 -306 5 0 9 -5 9
-10 0 -12 -340 -353 -425 -425 -32 -27 -63 -55 -69 -60 -6 -6 -45 -38 -86 -70
-41 -33 -80 -64 -87 -70 -7 -5 -18 -15 -25 -20 -20 -16 -119 -88 -144 -105
-12 -8 -55 -37 -95 -65 -40 -27 -77 -53 -82 -56 -5 -3 29 -64 76 -135 46 -71
105 -163 132 -204 27 -41 52 -76 57 -78 4 -2 8 -8 8 -13 0 -6 18 -37 40 -69
22 -32 40 -63 40 -69 0 -5 4 -11 8 -13 10 -3 78 -107 100 -150 8 -16 18 -28
23 -28 5 0 9 -5 9 -11 0 -6 23 -43 50 -83 28 -40 50 -78 50 -84 0 -7 3 -12 8
-12 4 0 30 -37 57 -81 28 -44 60 -92 72 -107 13 -15 23 -31 23 -35 0 -5 8 -20
19 -33 16 -21 20 -22 31 -9 7 8 18 15 25 15 8 0 15 3 17 8 2 4 44 34 93 67 50
33 96 65 102 71 7 7 29 22 50 35 21 13 40 26 43 29 3 3 66 53 140 110 74 57
140 109 146 115 6 5 37 33 69 60 174 149 220 192 389 361 120 119 209 214 296
315 25 29 56 65 70 81 28 32 30 34 85 103 22 27 45 55 50 62 24 30 49 62 97
128 4 5 18 24 31 40 13 17 44 59 68 95 24 36 46 67 50 70 5 5 106 158 187 286
18 28 32 56 32 62 0 5 3 12 8 14 8 3 82 125 82 135 0 3 9 17 20 33 11 15 17
30 13 34 -3 3 -1 6 5 6 7 0 12 5 12 10 0 6 11 28 25 50 14 22 23 40 19 40 -3
0 3 12 13 28 11 15 36 63 57 107 21 44 42 87 47 95 5 8 12 22 15 30 4 8 18 40
32 70 14 30 26 58 26 61 1 3 13 33 28 65 46 98 61 138 59 152 -1 6 4 12 10 12
7 0 10 3 7 6 -4 3 7 38 24 77 32 78 139 394 158 467 6 25 14 52 17 60 8 19 10
29 17 58 3 13 8 32 11 42 3 10 8 27 10 37 2 10 11 45 20 78 9 33 18 74 21 90
10 50 12 60 14 60 1 0 3 9 5 20 2 11 6 31 9 45 4 14 8 36 11 50 3 14 7 36 10
50 3 14 8 39 10 55 3 17 12 66 20 110 8 44 17 100 20 125 3 25 8 52 10 60 2 8
6 44 9 80 3 36 8 76 11 90 6 28 18 167 29 325 7 98 5 102 -52 103 -26 1 -96 4
-157 7 -60 4 -145 8 -187 8 -43 1 -78 4 -78 7 0 3 -30 5 -68 4 -37 0 -73 4
-79 9 -9 6 -13 5 -13 -2 0 -7 -4 -9 -10 -6 -9 5 -116 12 -300 19 -36 1 -71 5
-78 10 -7 4 -12 2 -12 -4 0 -6 -5 -8 -11 -4 -6 4 -46 8 -88 10 -42 1 -131 5
-198 8 l-123 6 -1 -53z"/>
</g>
</svg>
