<svg width="69" height="39" viewBox="0 0 69 39" fill="none" xmlns="http://www.w3.org/2000/svg">
<path fill-rule="evenodd" clip-rule="evenodd" d="M51.0854 19.2736C49.3014 19.1785 47.5554 18.847 45.9012 18.3131C46.7507 16.359 46.0278 14.0257 44.133 12.9401C42.2415 11.8388 39.8452 12.379 38.585 14.1126C37.2543 12.9117 36.0735 11.542 35.0785 9.99865C36.0735 8.45862 37.2543 7.08856 38.585 5.89212C39.8452 7.62578 42.2415 8.16305 44.133 7.06511C46.0278 5.975 46.7507 3.64617 45.9012 1.69204C47.5554 1.16265 49.3014 0.826557 51.0854 0.735901C51.9181 2.33861 52.5034 4.02856 52.8783 5.74654C50.7574 5.98717 49.1078 7.77913 49.1078 9.96718C49.1078 12.1541 50.7653 13.9505 52.894 14.1878C52.5269 15.9327 51.927 17.6463 51.0854 19.2736Z" fill="#ECECEC" fill-opacity="0.06"/>
<path fill-rule="evenodd" clip-rule="evenodd" d="M16.3906 38.8168C14.6065 38.7262 12.8652 38.3904 11.2066 37.8577C12.0594 35.9035 11.333 33.5698 9.43814 32.4841C7.54668 31.3862 5.1539 31.9237 3.89479 33.6563C2.55957 32.4598 1.37978 31.0863 0.384804 29.5462C1.37978 28.0062 2.55957 26.6321 3.89479 25.4401C5.1539 27.1738 7.54668 27.7066 9.43814 26.6131C11.333 25.5197 12.0594 23.1891 11.2066 21.2383C12.8652 20.7056 14.6065 20.3747 16.3906 20.2795C17.2277 21.8834 17.812 23.5722 18.187 25.2902C16.0672 25.5308 14.4129 27.3234 14.4129 29.5104C14.4129 31.6984 16.0705 33.4982 18.1992 33.731C17.8321 35.477 17.2322 37.1906 16.3906 38.8168Z" fill="#ECECEC" fill-opacity="0.06"/>
</svg>
